<svg width="42" height="33" viewBox="0 0 42 33" fill="none" xmlns="http://www.w3.org/2000/svg">
<path d="M19.4117 30.7649C24.8026 29.8126 29.2552 29.0245 29.3063 29.0137L29.3993 28.9939L24.3098 22.9401C21.5105 19.6105 19.2202 16.8734 19.2202 16.8576C19.2202 16.8277 24.4756 2.3556 24.5051 2.30408C24.515 2.2869 28.0915 8.46151 33.1747 17.2718C37.9336 25.5201 41.8572 32.3209 41.8937 32.3846L41.96 32.5005L25.785 32.4984L9.61012 32.4963L19.4117 30.7649ZM0 28.9187C0 28.9102 2.39816 24.7472 5.32924 19.6676L10.6585 10.4319L16.8691 5.21998C20.2849 2.3534 23.0889 0.00451301 23.1001 0.000111462C23.1114 -0.00405374 23.0665 0.109041 23.0003 0.251552C22.9341 0.394063 19.8994 6.90325 16.2564 14.7164L9.63289 28.9221L4.81644 28.9282C2.1674 28.9315 0 28.9273 0 28.9187Z" fill="#0089D6"/>
</svg>
