<svg width="49" height="36" viewBox="0 0 49 36" fill="none" xmlns="http://www.w3.org/2000/svg">
<path d="M47.931 13.4774C46.829 12.7127 44.3034 12.426 42.3289 12.8083C42.0993 10.8966 41.0431 9.22391 39.2063 7.74235L38.1502 6.97767L37.4155 8.0769C36.4971 9.51066 36.0379 11.5179 36.1757 13.4296C36.2216 14.0987 36.4512 15.2935 37.14 16.345C36.4971 16.7273 35.1654 17.2052 33.4205 17.2052H0.220765L0.128926 17.5876C-0.192509 19.4993 -0.19251 25.4733 3.57288 30.0613C6.41989 33.5502 10.6445 35.3185 16.2007 35.3185C28.2316 35.3185 37.14 29.5356 41.3186 19.0691C42.9717 19.1169 46.5075 19.0691 48.2984 15.4847C48.3443 15.3891 48.4362 15.1979 48.7576 14.4811L48.9413 14.0987L47.931 13.4774ZM26.7622 0H21.7111V4.77923H26.7622V0ZM26.7622 5.73507H21.7111V10.5143H26.7622V5.73507ZM20.7927 5.73507H15.7415V10.5143H20.7927V5.73507ZM14.8231 5.73507H9.772V10.5143H14.8231V5.73507ZM8.85362 11.4701H3.80248V16.2494H8.85362V11.4701ZM14.8231 11.4701H9.772V16.2494H14.8231V11.4701ZM20.7927 11.4701H15.7415V16.2494H20.7927V11.4701ZM26.7622 11.4701H21.7111V16.2494H26.7622V11.4701ZM32.7317 11.4701H27.6806V16.2494H32.7317V11.4701Z" fill="#2396ED"/>
</svg>
