<svg width="113" height="88" viewBox="0 0 113 88" fill="none" xmlns="http://www.w3.org/2000/svg">
<g clip-path="url(#clip0_166_464)">
<path d="M22.2032 6.02099C35.8652 -1.86918 53.764 -1.38206 67.0181 7.15948C77.7799 13.7639 88.644 20.2097 99.2754 27.018C103.648 29.9068 108.927 31.9005 111.81 36.5508C110.337 37.3438 108.871 38.1481 107.387 38.9184C107.636 42.215 107.052 45.5908 107.727 48.8309C108.842 49.9749 110.337 50.6261 111.697 51.4248C109.618 55.2481 105.506 56.9873 102.023 59.2303C90.5472 66.52 78.9298 73.583 67.307 80.6238C62.1808 83.8069 56.4828 86.0839 50.5129 87.013C39.5243 88.8142 27.9014 86.1464 18.7708 79.7742C10.9712 74.3761 5.03518 66.3386 2.14646 57.3042C-0.821558 48.1737 -0.600656 38.0575 2.69022 29.0458C6.18502 19.3771 13.2425 11.0565 22.2032 6.02099ZM19.5354 10.7619C12.1437 16.0749 6.64381 23.9537 4.17423 32.7162C1.91423 40.4817 2.05017 48.9099 4.59337 56.585C7.71999 66.571 14.9588 75.1068 24.1347 80.0741C31.8437 84.3392 40.9063 85.7101 49.6008 84.617C45.2962 84.1412 40.9233 83.7729 36.8281 82.2551C26.7459 78.8736 18.108 71.3344 13.5088 61.7282C9.32293 53.2999 8.32607 43.3818 10.6031 34.2682C12.4665 26.3214 16.9469 19.0995 23.0699 13.7299C30.7901 6.64406 41.3764 3.25122 51.7644 3.53443C50.19 3.37017 48.6208 3.17759 47.0405 3.05864C37.3436 2.17503 27.3973 5.04111 19.5354 10.7619ZM32.5856 10.2068C23.9874 14.4832 17.2244 22.2148 14.0355 31.2605C11.7868 37.4174 11.3847 44.1635 12.4156 50.6091C14.0525 60.2609 19.6827 69.1819 27.6805 74.8234C35.1345 80.227 44.707 82.8158 53.8545 81.5354C49.6178 80.6408 45.2563 80.0686 41.2745 78.2618C30.3427 73.6454 21.937 63.5404 19.4731 51.9235C17.7569 43.8461 18.7141 35.1914 22.3562 27.7657C26.593 18.9693 34.4208 11.974 43.6704 8.81909C47.2163 7.556 50.9827 7.16517 54.6421 6.36084C47.1199 5.5282 39.3204 6.6554 32.5856 10.2068ZM28.4961 22.532C21.9087 30.8583 19.4561 42.2886 22.1636 52.5692C24.3953 61.5922 30.4843 69.5387 38.5387 74.1552C45.2677 78.086 53.3166 79.4738 61.0083 78.4258C58.9127 77.95 56.7941 77.6047 54.693 77.1798C43.0022 74.8234 33.0728 65.6534 29.5553 54.291C27.2274 46.9672 27.4369 38.8278 30.2634 31.6683C33.8544 22.2488 41.8919 14.6589 51.4925 11.5945C54.7381 10.5523 58.148 10.2295 61.507 9.73104C49.2325 7.49368 36.0918 12.682 28.4961 22.532ZM35.0269 27.3975C31.804 32.6482 30.1161 38.8278 30.3653 44.9961C30.5692 54.6988 35.6273 64.1466 43.563 69.7316C50.303 74.512 59.0032 76.7495 67.1655 75.0388C63.2853 74.4101 59.298 73.9568 55.7011 72.252C47.3183 68.6326 40.7874 61.0935 38.3914 52.2859C36.4599 45.6363 36.9584 38.3634 39.6772 32.0025C42.6679 24.6334 48.7457 18.6521 56.0524 15.5651C59.196 14.2114 62.6001 13.6903 65.8741 12.767C53.8944 10.6769 41.2292 17.0831 35.0269 27.3975ZM48.4568 23.2344C42.8378 28.5757 39.4619 36.2733 39.5526 44.0445C39.5526 51.5157 42.5884 58.9754 47.9695 64.1806C54.1888 70.5642 63.5742 73.6509 72.3707 72.1785C68.7968 70.9096 64.9565 70.3998 61.575 68.6212C56.5733 65.9818 52.3141 61.8581 49.7253 56.8173C46.6441 51.3343 46.1853 44.8092 47.0689 38.6919C48.6607 30.071 54.7495 22.481 62.685 18.822C66.0665 17.236 69.7993 16.7489 73.4128 15.9616C64.5542 14.2057 54.9819 16.9981 48.4568 23.2344ZM55.9675 26.2364C51.4245 30.9716 48.7457 37.4741 48.6777 44.039C48.8986 52.048 52.7274 60.0799 59.411 64.6679C64.2708 68.0434 70.5186 70.3659 76.4375 68.7856C72.4217 66.9958 68.0321 65.7494 64.7016 62.7362C57.055 56.6304 53.8884 45.5908 57.1115 36.3526C58.7313 30.949 62.6171 26.5026 67.188 23.3307C70.1447 21.3539 73.6736 20.6232 76.9472 19.3658C75.5993 18.89 74.2004 18.3235 72.739 18.4538C66.4913 19.0429 60.3515 21.6824 55.9675 26.2364ZM63.5631 29.295C57.2474 36.2846 56.3583 47.4205 61.1842 55.452C64.7411 61.4503 71.2378 65.5795 78.1992 66.1972C79.7115 63.2745 81.3598 60.3968 82.4133 57.2647C84.7468 51.3058 84.6278 44.7977 84.254 38.522C83.7162 33.4695 81.892 28.6153 79.536 24.1407C78.9073 23.2853 78.488 21.7277 77.1626 21.9203C71.9005 22.4527 67.0576 25.3981 63.5631 29.295ZM89.2613 34.3758C89.6181 37.593 90.2354 40.7933 90.2468 44.039C90.2243 47.2786 89.6066 50.4732 89.2613 53.6848C91.1079 47.409 91.119 40.6517 89.2613 34.3758ZM92.6258 35.9957C93.1525 41.1614 93.266 46.35 92.6712 51.5157C93.8777 46.429 93.7983 41.0765 92.6258 35.9957ZM98.3807 36.0467C98.7206 40.6743 98.9075 45.3075 98.9075 49.9464C100.159 45.3814 99.8986 40.5101 98.3807 36.0467ZM96.1487 39.281C95.8938 42.4416 95.8938 45.6248 96.1487 48.7854C96.6814 45.6418 96.687 42.4189 96.1487 39.281Z" fill="#79439E"/>
<path d="M86.6621 30.1617L87.5045 56.9248C87.5045 56.9248 110.027 57.3496 111.726 51.4023C113.425 45.4549 112.151 36.5338 111.726 36.5338C111.301 36.5338 86.6621 30.1617 86.6621 30.1617Z" fill="#79439E"/>
</g>
<defs>
<clipPath id="clip0_166_464">
<rect width="113" height="87.9361" fill="white"/>
</clipPath>
</defs>
</svg>
