<svg width="47" height="24" viewBox="0 0 47 24" fill="none" xmlns="http://www.w3.org/2000/svg">
<path d="M0.279668 21.7828H1.80516V15.7584L4.16693 21.0104C4.44544 21.6461 4.82682 21.8708 5.57508 21.8708C6.32335 21.8708 6.69024 21.6461 6.96875 21.0104L9.33052 15.7584V21.7828H10.856V15.7684C10.856 15.1817 10.6213 14.8976 10.1371 14.7513C8.97811 14.3896 8.20051 14.7027 7.84847 15.4851L5.53089 20.6684L3.28684 15.4847C2.94928 14.7027 2.1572 14.3896 0.998225 14.751C0.513988 14.8976 0.279297 15.1813 0.279297 15.7681L0.279668 21.7828ZM12.1249 16.8788H13.65V20.1979C13.6359 20.378 13.708 20.8013 14.5435 20.8147C14.9698 20.8214 17.8344 20.8147 17.8611 20.8147V16.8624H19.3899C19.397 16.8624 19.3885 22.2522 19.3885 22.2744C19.3966 23.6039 17.7393 23.8924 16.9751 23.9147H12.158V22.8883C12.1661 22.8883 16.9717 22.8894 16.9836 22.8879C17.9658 22.7843 17.8496 22.2964 17.8492 22.1322V21.7319H14.607C13.0986 21.7182 12.1375 21.0598 12.1253 20.3022C12.1245 20.2328 12.1583 16.9122 12.1249 16.8788Z" fill="#00618A"/>
<path d="M20.5664 21.7828H24.9528C25.4663 21.7828 25.9654 21.6755 26.3613 21.4898C27.0212 21.1868 27.3439 20.7761 27.3439 20.2376V19.1228C27.3439 18.6828 26.9773 18.2717 26.2584 17.9984C25.877 17.8513 25.4073 17.7737 24.9524 17.7737H23.1038C22.4878 17.7737 22.1944 17.588 22.1212 17.1773C22.1068 17.1283 22.1068 17.0893 22.1068 17.0403V16.3459C22.1068 16.3069 22.1068 16.2675 22.1212 16.2189C22.1944 15.9058 22.3559 15.8178 22.8988 15.7688L23.0455 15.7592H27.4025V14.7424H23.119C22.503 14.7424 22.1803 14.7814 21.8869 14.8694C20.9775 15.1531 20.5809 15.6028 20.5809 16.3852V17.275C20.5809 17.9598 21.3589 18.5465 22.6641 18.6835C22.8112 18.6928 22.9575 18.7032 23.1042 18.7032H24.6887C24.7474 18.7032 24.8061 18.7032 24.8503 18.7125C25.3345 18.7515 25.5395 18.8398 25.6865 19.0155C25.7746 19.1035 25.8035 19.1919 25.8035 19.2892V20.1793C25.8035 20.2866 25.7304 20.4236 25.5837 20.541C25.4519 20.6583 25.2316 20.7367 24.9383 20.7564L24.7767 20.766H20.5664V21.7828ZM36.8615 20.0129C36.8615 21.059 37.6391 21.6458 39.2084 21.7635C39.3551 21.7731 39.5018 21.7828 39.6485 21.7828H43.6241V20.766H39.6195C38.7245 20.766 38.3874 20.541 38.3874 20.0029V14.7417H36.8619L36.8615 20.0129ZM28.3175 20.0657V16.4395C28.3175 15.5185 28.9644 14.9596 30.2433 14.7833C30.3755 14.7636 30.523 14.7539 30.6548 14.7539H33.5509C33.698 14.7539 33.8302 14.7636 33.9769 14.7833C35.2558 14.9596 35.9031 15.5181 35.9031 16.4395V20.0657C35.9031 20.8136 35.6283 21.2131 34.9951 21.4738L36.4983 22.8303H34.7266L33.5108 21.7326L32.2869 21.8103H30.6548C30.3755 21.8103 30.0818 21.7713 29.7584 21.6829C28.788 21.4185 28.3175 20.9086 28.3175 20.0657ZM29.9641 19.9777C29.9641 20.0267 29.9786 20.0761 29.9934 20.1347C30.0814 20.5562 30.4788 20.7913 31.0811 20.7913H32.467L31.194 19.642H32.9657L34.0757 20.6446C34.2806 20.5351 34.4151 20.3687 34.4622 20.1544C34.4767 20.1054 34.4767 20.0564 34.4767 20.0074V16.5286C34.4767 16.4896 34.4767 16.4402 34.4622 16.3912C34.3738 15.999 33.9769 15.774 33.389 15.774H31.0807C30.4049 15.774 29.9637 16.0681 29.9637 16.5286L29.9641 19.9777Z" fill="#E48E00"/>
<path d="M44.9658 13.0539C44.0282 13.0283 43.3119 13.1155 42.6991 13.3736C42.525 13.4472 42.2476 13.449 42.2194 13.667C42.3148 13.7676 42.3296 13.9173 42.4058 14.0406C42.5521 14.2771 42.799 14.5942 43.0192 14.7602C43.2595 14.9418 43.5076 15.1364 43.766 15.2939C44.2246 15.5739 44.7371 15.7335 45.1794 16.0135C45.4397 16.1792 45.6981 16.3871 45.9525 16.5739C46.0784 16.6656 46.1623 16.8093 46.3261 16.8669V16.8405C46.2403 16.7313 46.218 16.5813 46.1393 16.4669L45.7925 16.1201C45.4534 15.67 45.0234 15.2753 44.5655 14.947C44.2009 14.6852 43.3846 14.3313 43.2324 13.9069L43.2056 13.8805C43.4641 13.8512 43.7671 13.7576 44.0055 13.6937C44.4066 13.586 44.7649 13.6139 45.179 13.5069L45.739 13.3465V13.2403C45.5299 13.0257 45.3803 12.7412 45.1523 12.547C44.5555 12.0386 43.9034 11.5306 43.2324 11.1065C42.8603 10.8719 42.4002 10.7192 42.0055 10.5202C41.8733 10.453 41.64 10.4184 41.552 10.3067C41.3445 10.0426 41.2319 9.70805 41.0719 9.40021C40.7377 8.75592 40.4087 8.05184 40.112 7.37339C39.9099 6.91106 39.7777 6.45505 39.5256 6.04025C38.3146 4.04946 37.0112 2.84778 34.9922 1.6669C34.5625 1.41549 34.0453 1.31672 33.499 1.18711L32.6189 1.13364C32.4403 1.059 32.2539 0.839906 32.0857 0.733701C31.4165 0.311108 29.7009 -0.607978 29.2055 0.600758C28.8928 1.36351 29.6734 2.10769 29.9523 2.49426C30.148 2.76534 30.399 3.0691 30.539 3.37398C30.6311 3.57451 30.6467 3.77541 30.7258 3.98745C30.9192 4.50956 31.0882 5.07809 31.3389 5.56047C31.4655 5.80482 31.6055 6.06216 31.7656 6.28052C31.8636 6.4142 32.0322 6.47362 32.0585 6.68046C31.894 6.91069 31.8844 7.26867 31.7919 7.56018C31.3753 8.87438 31.5323 10.5079 32.1388 11.4805C32.3248 11.7794 32.763 12.4196 33.3653 12.1738C33.8923 11.9592 33.7749 11.2941 33.9257 10.707C33.9598 10.5744 33.9387 10.4764 34.0055 10.3872V10.414L34.4857 11.3739C34.841 11.9462 35.4712 12.5437 36.0056 12.9473C36.2826 13.1564 36.501 13.5184 36.8589 13.6406V13.6135H36.8326C36.7628 13.5055 36.6547 13.4609 36.5656 13.3736C36.3569 13.169 36.1248 12.915 35.9525 12.6803C35.4664 12.0208 35.0371 11.2985 34.6457 10.5469C34.4589 10.1882 34.2967 9.79235 34.1392 9.42694C34.0783 9.2862 34.079 9.07305 33.9528 9.00064C33.7797 9.26801 33.5261 9.4845 33.3924 9.80052C33.1793 10.3056 33.1518 10.9216 33.0727 11.5603L33.0192 11.5867C32.6475 11.4972 32.5172 11.1147 32.379 10.7868C32.0299 9.9576 31.965 8.62186 32.2724 7.66713C32.3519 7.41981 32.711 6.64184 32.5654 6.41346C32.496 6.18582 32.2669 6.05437 32.1391 5.87983C31.9806 5.66482 31.822 5.38186 31.7124 5.13305C31.4265 4.48654 31.2932 3.76055 30.9928 3.10661C30.8487 2.79394 30.6058 2.47792 30.406 2.20015C30.1851 1.89193 29.9374 1.66541 29.7658 1.29332C29.7049 1.16112 29.6221 0.949081 29.7124 0.813168C29.741 0.721445 29.7822 0.683197 29.8728 0.653117C30.0273 0.533915 30.458 0.692853 30.6192 0.759695C31.047 0.937571 31.4039 1.10653 31.7663 1.34642C31.9401 1.46191 32.1157 1.68472 32.3263 1.74636H32.5662C32.9416 1.83252 33.3623 1.77273 33.7129 1.87931C34.333 2.06795 34.8886 2.36094 35.3929 2.67956C36.9299 3.65026 38.1861 5.03167 39.0462 6.67971C39.1843 6.94523 39.2445 7.19812 39.3659 7.4796C39.6117 8.04702 39.9215 8.63115 40.1658 9.18631C40.4098 9.73999 40.6478 10.2989 40.9928 10.7597C41.174 11.0018 41.8744 11.1318 42.1926 11.2662C42.4158 11.3605 42.7812 11.459 42.9925 11.586C43.3962 11.8296 43.7875 12.1196 44.166 12.3862C44.355 12.5206 44.9369 12.8129 44.9658 13.0539ZM33.046 2.8942C32.8506 2.89049 32.7121 2.91574 32.5658 2.94767V2.97404H32.5925C32.6857 3.16603 32.8503 3.28931 32.9657 3.45419L33.2327 4.01418L33.2591 3.98782C33.4244 3.87159 33.4997 3.68554 33.499 3.40109C33.4325 3.33128 33.4229 3.24401 33.3657 3.1612C33.2899 3.04979 33.1421 2.98741 33.046 2.8942Z" fill="#00618A"/>
</svg>
