<svg width="48" height="29" viewBox="0 0 48 29" fill="none" xmlns="http://www.w3.org/2000/svg">
<path d="M23.2908 28.8366C23.1311 28.8366 22.9821 28.794 22.8437 28.7195L21.428 27.8786C21.2151 27.7615 21.3215 27.7189 21.3854 27.6976C21.6728 27.6018 21.726 27.5805 22.0241 27.4102C22.056 27.3889 22.0986 27.3995 22.1305 27.4208L23.2163 28.0702C23.2589 28.0914 23.3121 28.0914 23.344 28.0702L27.5913 25.6112C27.6339 25.5899 27.6552 25.5474 27.6552 25.4941V20.5869C27.6552 20.5337 27.6339 20.4911 27.5913 20.4698L23.344 18.0215C23.3015 18.0002 23.2482 18.0002 23.2163 18.0215L18.9691 20.4698C18.9265 20.4911 18.9052 20.5443 18.9052 20.5869V25.4941C18.9052 25.5367 18.9265 25.5899 18.9691 25.6112L20.1293 26.2818C20.7574 26.6012 21.1512 26.2286 21.1512 25.8561V21.0127C21.1512 20.9488 21.2045 20.885 21.279 20.885H21.8218C21.8857 20.885 21.9496 20.9382 21.9496 21.0127V25.8561C21.9496 26.697 21.4919 27.1866 20.6935 27.1866C20.4487 27.1866 20.2571 27.1866 19.7142 26.9205L18.5965 26.2818C18.3197 26.1222 18.1494 25.8241 18.1494 25.5048V20.5976C18.1494 20.2782 18.3197 19.9802 18.5965 19.8205L22.8437 17.3616C23.1099 17.2125 23.4718 17.2125 23.7379 17.3616L27.9851 19.8205C28.2619 19.9802 28.4322 20.2782 28.4322 20.5976V25.5048C28.4322 25.8241 28.2619 26.1222 27.9851 26.2818L23.7379 28.7408C23.5995 28.8046 23.4398 28.8366 23.2908 28.8366ZM24.6001 25.4622C22.7373 25.4622 22.3541 24.6106 22.3541 23.8868C22.3541 23.8229 22.4073 23.759 22.4818 23.759H23.0353C23.0992 23.759 23.1524 23.8016 23.1524 23.8655C23.2376 24.4297 23.4824 24.7064 24.6108 24.7064C25.5049 24.7064 25.8881 24.5042 25.8881 24.0252C25.8881 23.7484 25.7817 23.5461 24.3872 23.4078C23.227 23.2907 22.5031 23.0352 22.5031 22.1091C22.5031 21.2469 23.227 20.7359 24.4404 20.7359C25.803 20.7359 26.4736 21.2043 26.5588 22.2262C26.5588 22.2581 26.5481 22.2901 26.5268 22.322C26.5055 22.3433 26.4736 22.3646 26.4417 22.3646H25.8881C25.8349 22.3646 25.7817 22.322 25.771 22.2688C25.6433 21.6833 25.3133 21.4917 24.4404 21.4917C23.4611 21.4917 23.344 21.8323 23.344 22.0878C23.344 22.3965 23.4824 22.4923 24.8024 22.6626C26.1117 22.8329 26.7291 23.0778 26.7291 23.9932C26.7184 24.93 25.952 25.4622 24.6001 25.4622Z" fill="#539E43"/>
<path d="M10.1125 9.64413C10.1125 9.45253 10.006 9.27157 9.83573 9.17576L5.32237 6.57845C5.24785 6.53587 5.16269 6.51458 5.07754 6.50394H5.03496C4.9498 6.50394 4.86464 6.53587 4.79013 6.57845L0.276763 9.17576C0.106447 9.27157 0 9.45253 0 9.64413L0.0106447 16.6271C0.0106447 16.7229 0.0638684 16.8187 0.149026 16.8613C0.234184 16.9145 0.340631 16.9145 0.415144 16.8613L3.09762 15.3284C3.26793 15.2326 3.37438 15.0517 3.37438 14.86V11.5921C3.37438 11.4005 3.48083 11.2196 3.65114 11.1237L4.79013 10.4638C4.87529 10.4106 4.97109 10.3893 5.06689 10.3893C5.16269 10.3893 5.2585 10.4106 5.33301 10.4638L6.472 11.1237C6.64231 11.2196 6.74876 11.4005 6.74876 11.5921V14.86C6.74876 15.0517 6.85521 15.2326 7.02552 15.3284L9.70799 16.8613C9.79315 16.9145 9.8996 16.9145 9.98476 16.8613C10.0699 16.8187 10.1231 16.7229 10.1231 16.6271L10.1125 9.64413Z" fill="#222222"/>
<path d="M31.8066 0.0319342C31.7214 -0.0106447 31.615 -0.0106447 31.5405 0.0319342C31.4553 0.0851578 31.4021 0.170316 31.4021 0.266118V7.18519C31.4021 7.24906 31.3701 7.31293 31.3063 7.35551C31.2424 7.38744 31.1785 7.38744 31.1147 7.35551L29.9863 6.70618C29.816 6.61038 29.6138 6.61038 29.4434 6.70618L24.9301 9.31414C24.7598 9.40994 24.6533 9.5909 24.6533 9.78251V14.9878C24.6533 15.1794 24.7598 15.3603 24.9301 15.4561L29.4434 18.0641C29.6138 18.1599 29.816 18.1599 29.9863 18.0641L34.4997 15.4561C34.67 15.3603 34.7765 15.1794 34.7765 14.9878V2.01185C34.7765 1.8096 34.67 1.62864 34.4997 1.53284L31.8066 0.0319342ZM31.3914 13.274C31.3914 13.3272 31.3701 13.3698 31.3276 13.3911L29.7841 14.2852C29.7415 14.3065 29.6883 14.3065 29.6457 14.2852L28.1022 13.3911C28.0596 13.3698 28.0383 13.3166 28.0383 13.274V11.4857C28.0383 11.4324 28.0596 11.3899 28.1022 11.3686L29.6457 10.4744C29.6883 10.4531 29.7415 10.4531 29.7841 10.4744L31.3276 11.3686C31.3701 11.3899 31.3914 11.4431 31.3914 11.4857V13.274Z" fill="#222222"/>
<path d="M46.8262 11.4431C46.9965 11.3473 47.0923 11.1663 47.0923 10.9747V9.708C47.0923 9.51639 46.9858 9.33543 46.8262 9.23963L42.3447 6.64232C42.1744 6.54651 41.9722 6.54651 41.8018 6.64232L37.2885 9.25028C37.1182 9.34608 37.0117 9.52704 37.0117 9.71864V14.9239C37.0117 15.1155 37.1182 15.2965 37.2885 15.3923L41.7699 17.947C41.9402 18.0428 42.1425 18.0428 42.3021 17.947L45.0166 16.4355C45.1017 16.3929 45.1549 16.2971 45.1549 16.2013C45.1549 16.1055 45.1017 16.0097 45.0166 15.9671L40.4819 13.3591C40.3967 13.3059 40.3435 13.2208 40.3435 13.125V11.4963C40.3435 11.4005 40.3967 11.3047 40.4819 11.2621L41.8976 10.4531C41.9828 10.3999 42.0893 10.3999 42.1744 10.4531L43.5902 11.2621C43.6753 11.3154 43.7285 11.4005 43.7285 11.4963V12.7737C43.7285 12.8695 43.7818 12.9653 43.8669 13.0079C43.9521 13.0611 44.0585 13.0611 44.1437 13.0079L46.8262 11.4431Z" fill="#222222"/>
<path d="M42.0043 11.1983C42.0362 11.177 42.0788 11.177 42.1108 11.1983L42.973 11.6986C43.0049 11.7198 43.0262 11.7518 43.0262 11.7944V12.795C43.0262 12.8375 43.0049 12.8695 42.973 12.8908L42.1108 13.3911C42.0788 13.4124 42.0362 13.4124 42.0043 13.3911L41.1421 12.8908C41.1102 12.8695 41.0889 12.8375 41.0889 12.795V11.7944C41.0889 11.7518 41.1102 11.7198 41.1421 11.6986L42.0043 11.1983Z" fill="#539E43"/>
<path d="M17.6596 6.6636C17.4893 6.5678 17.287 6.5678 17.1167 6.6636L12.6353 9.25027C12.4649 9.34608 12.3691 9.52704 12.3691 9.71864V14.9026C12.3691 15.0942 12.4756 15.2752 12.6353 15.371L17.1167 17.9577C17.287 18.0535 17.4893 18.0535 17.6596 17.9577L22.141 15.371C22.3113 15.2752 22.4071 15.0942 22.4071 14.9026V9.71864C22.4071 9.52704 22.3007 9.34608 22.141 9.25027L17.6596 6.6636Z" fill="url(#paint0_linear_158_63)"/>
<mask id="mask0_158_63" style="mask-type:luminance" maskUnits="userSpaceOnUse" x="12" y="6" width="11" height="13">
<path d="M17.6596 6.6636C17.4893 6.5678 17.287 6.5678 17.1167 6.6636L12.6353 9.25027C12.4649 9.34608 12.3691 9.52704 12.3691 9.71864V14.9026C12.3691 15.0942 12.4756 15.2752 12.6353 15.371L17.1167 17.9577C17.287 18.0535 17.4893 18.0535 17.6596 17.9577L22.141 15.371C22.3113 15.2752 22.4071 15.0942 22.4071 14.9026V9.71864C22.4071 9.52704 22.3007 9.34608 22.141 9.25027L17.6596 6.6636Z" fill="white"/>
</mask>
<g mask="url(#mask0_158_63)">
<path d="M22.1525 9.25026L17.6498 6.66359C17.6072 6.6423 17.554 6.62101 17.5114 6.61037L12.4658 15.2539C12.5084 15.3071 12.5616 15.3497 12.6148 15.3816L17.1176 17.9683C17.2453 18.0428 17.3943 18.0641 17.5327 18.0215L22.2696 9.35671C22.2377 9.31413 22.1951 9.28219 22.1525 9.25026Z" fill="url(#paint1_linear_158_63)"/>
</g>
<mask id="mask1_158_63" style="mask-type:luminance" maskUnits="userSpaceOnUse" x="12" y="6" width="11" height="13">
<path d="M17.6596 6.6636C17.4893 6.5678 17.287 6.5678 17.1167 6.6636L12.6353 9.25027C12.4649 9.34608 12.3691 9.52704 12.3691 9.71864V14.9026C12.3691 15.0942 12.4756 15.2752 12.6353 15.371L17.1167 17.9577C17.287 18.0535 17.4893 18.0535 17.6596 17.9577L22.141 15.371C22.3113 15.2752 22.4071 15.0942 22.4071 14.9026V9.71864C22.4071 9.52704 22.3007 9.34608 22.141 9.25027L17.6596 6.6636Z" fill="white"/>
</mask>
<g mask="url(#mask1_158_63)">
<path fill-rule="evenodd" clip-rule="evenodd" d="M22.1628 15.371C22.2905 15.2965 22.3863 15.1687 22.4289 15.0304L17.4897 6.59973C17.362 6.57844 17.2236 6.58908 17.1065 6.6636L12.6357 9.23962L17.4578 18.0322C17.5217 18.0215 17.5962 18.0002 17.6601 17.9683L22.1628 15.371Z" fill="url(#paint2_linear_158_63)"/>
<path fill-rule="evenodd" clip-rule="evenodd" d="M22.1631 15.371L17.671 17.9577C17.6071 17.9896 17.5433 18.0109 17.4688 18.0215L17.5539 18.1812L22.5356 15.2965V15.2326L22.4079 15.0197C22.3866 15.1687 22.2908 15.2965 22.1631 15.371Z" fill="url(#paint3_linear_158_63)"/>
<path fill-rule="evenodd" clip-rule="evenodd" d="M22.1631 15.371L17.671 17.9577C17.6071 17.9896 17.5433 18.0109 17.4688 18.0215L17.5539 18.1812L22.5356 15.2965V15.2326L22.4079 15.0197C22.3866 15.1687 22.2908 15.2965 22.1631 15.371Z" fill="url(#paint4_linear_158_63)"/>
</g>
<defs>
<linearGradient id="paint0_linear_158_63" x1="696.843" y1="206.602" x2="205.617" y2="978.433" gradientUnits="userSpaceOnUse">
<stop stop-color="#41873F"/>
<stop offset="0.3288" stop-color="#418B3D"/>
<stop offset="0.6352" stop-color="#419637"/>
<stop offset="0.9319" stop-color="#3FA92D"/>
<stop offset="1" stop-color="#3FAE2A"/>
</linearGradient>
<linearGradient id="paint1_linear_158_63" x1="436.74" y1="637.347" x2="1666.94" y2="-31.0171" gradientUnits="userSpaceOnUse">
<stop offset="0.1376" stop-color="#41873F"/>
<stop offset="0.4032" stop-color="#54A044"/>
<stop offset="0.7136" stop-color="#66B848"/>
<stop offset="0.9081" stop-color="#6CC04A"/>
</linearGradient>
<linearGradient id="paint2_linear_158_63" x1="-30.3445" y1="578.664" x2="1006.63" y2="578.664" gradientUnits="userSpaceOnUse">
<stop offset="0.0919165" stop-color="#6CC04A"/>
<stop offset="0.2864" stop-color="#66B848"/>
<stop offset="0.5968" stop-color="#54A044"/>
<stop offset="0.8624" stop-color="#41873F"/>
</linearGradient>
<linearGradient id="paint3_linear_158_63" x1="-508.782" y1="173.965" x2="528.195" y2="173.965" gradientUnits="userSpaceOnUse">
<stop offset="0.0919165" stop-color="#6CC04A"/>
<stop offset="0.2864" stop-color="#66B848"/>
<stop offset="0.5968" stop-color="#54A044"/>
<stop offset="0.8624" stop-color="#41873F"/>
</linearGradient>
<linearGradient id="paint4_linear_158_63" x1="679.271" y1="-652.273" x2="416.565" y2="724.307" gradientUnits="userSpaceOnUse">
<stop stop-color="#41873F"/>
<stop offset="0.3288" stop-color="#418B3D"/>
<stop offset="0.6352" stop-color="#419637"/>
<stop offset="0.9319" stop-color="#3FA92D"/>
<stop offset="1" stop-color="#3FAE2A"/>
</linearGradient>
</defs>
</svg>
