<svg width="48" height="43" viewBox="0 0 48 43" fill="none" xmlns="http://www.w3.org/2000/svg">
<path d="M39.4656 13.8419C38.9677 13.6705 38.4517 13.5084 37.9205 13.355C38.0078 12.9986 38.0879 12.6469 38.1592 12.3011C39.3288 6.62342 38.5641 2.04942 35.9526 0.543467C33.4486 -0.900543 29.3534 0.60507 25.2174 4.20446C24.8197 4.55057 24.4209 4.91702 24.0222 5.30107C23.7566 5.04698 23.4914 4.80142 23.2269 4.56655C18.8923 0.717849 14.5475 -0.904046 11.9386 0.606265C9.43695 2.05446 8.6961 6.35445 9.74897 11.7353C9.85065 12.255 9.96949 12.7857 10.1039 13.3254C9.48898 13.4999 8.89535 13.686 8.32735 13.884C3.2455 15.6557 0 18.4325 0 21.3127C0 24.2875 3.48405 27.2712 8.77718 29.0804C9.1949 29.2232 9.62833 29.3581 10.075 29.4863C9.93002 30.0699 9.80391 30.6419 9.69805 31.1997C8.69414 36.4871 9.47813 40.6855 11.9731 42.1246C14.5502 43.6107 18.8753 42.0831 23.0869 38.4017C23.4198 38.1107 23.7538 37.8021 24.0885 37.4786C24.5223 37.8964 24.9554 38.2917 25.3862 38.6625C29.4656 42.1729 33.4946 43.5905 35.9873 42.1474C38.5619 40.657 39.3986 36.1469 38.3123 30.6596C38.2293 30.2406 38.1328 29.8124 38.0244 29.3767C38.3281 29.2869 38.6263 29.1942 38.917 29.0978C44.4197 27.2746 48 24.3272 48 21.3127C48 18.4221 44.6498 15.6266 39.4656 13.8419ZM38.2721 27.1514C38.0097 27.2383 37.7404 27.3223 37.4659 27.4037C36.8585 25.4806 36.0386 23.4356 35.0353 21.3227C35.9927 19.2602 36.7809 17.2414 37.3713 15.3307C37.8624 15.4728 38.3389 15.6227 38.7982 15.7808C43.24 17.3099 45.9495 19.5707 45.9495 21.3127C45.9495 23.1683 43.0233 25.5771 38.2721 27.1514ZM36.3007 31.0579C36.781 33.4843 36.8497 35.678 36.5315 37.3929C36.2456 38.9339 35.6707 39.9613 34.9598 40.3728C33.4471 41.2484 30.2122 40.1103 26.7235 37.1081C26.3235 36.7639 25.9207 36.3965 25.5165 36.0076C26.8691 34.5283 28.2208 32.8087 29.5401 30.8989C31.8605 30.693 34.0528 30.3563 36.0409 29.8968C36.1388 30.2917 36.2258 30.6791 36.3007 31.0579ZM16.3643 40.2215C14.8864 40.7435 13.7093 40.7584 12.9977 40.3481C11.4836 39.4748 10.8542 36.1039 11.7128 31.5821C11.8111 31.0643 11.9282 30.5323 12.0631 29.9886C14.0294 30.4234 16.2056 30.7363 18.5316 30.9248C19.8598 32.7937 21.2506 34.5114 22.6521 36.0155C22.3459 36.3111 22.0409 36.5926 21.7376 36.8578C19.8752 38.4856 18.009 39.6406 16.3643 40.2215ZM9.44037 27.1401C7.09984 26.3401 5.16695 25.3004 3.84204 24.1658C2.65152 23.1463 2.05046 22.1341 2.05046 21.3127C2.05046 19.5649 4.65627 17.3355 9.00232 15.8203C9.52965 15.6364 10.0817 15.4631 10.6545 15.3004C11.2552 17.2542 12.0431 19.297 12.994 21.3626C12.0308 23.459 11.2317 25.5343 10.6252 27.511C10.2168 27.3936 9.82108 27.2701 9.44037 27.1401ZM11.7613 11.3415C10.8593 6.73133 11.4584 3.2536 12.9659 2.38093C14.5718 1.45126 18.1227 2.77677 21.8653 6.09993C22.1045 6.31233 22.3447 6.53465 22.5856 6.76465C21.1909 8.26214 19.8129 9.967 18.4965 11.8248C16.239 12.034 14.0781 12.3702 12.0913 12.8202C11.9664 12.3178 11.8557 11.8241 11.7613 11.3415ZM32.4664 16.4541C31.9914 15.6337 31.5038 14.8327 31.0067 14.0536C32.5382 14.2472 34.0055 14.5042 35.3835 14.8187C34.9698 16.1445 34.4542 17.5308 33.8472 18.9519C33.4118 18.1253 32.9513 17.2918 32.4664 16.4541ZM24.0229 8.2301C24.9687 9.25478 25.9159 10.3988 26.8475 11.6401C25.9087 11.5957 24.9583 11.5727 24 11.5727C23.0508 11.5727 22.1073 11.5952 21.1743 11.6388C22.1069 10.4091 23.0623 9.26657 24.0229 8.2301ZM15.5254 16.4683C15.0509 17.2909 14.5989 18.1199 14.1704 18.9504C13.5732 17.5342 13.0624 16.1416 12.6451 14.797C14.0146 14.4905 15.475 14.2399 16.9968 14.05C16.4927 14.8363 16.0011 15.6433 15.5254 16.4683ZM17.0406 28.7218C15.4684 28.5464 13.986 28.3087 12.6168 28.0107C13.0408 26.642 13.5629 25.2197 14.1727 23.7731C14.6024 24.6029 15.0561 25.4322 15.5335 26.2567C16.0197 27.0967 16.5235 27.9194 17.0406 28.7218ZM24.0796 34.54C23.1078 33.4914 22.1384 32.3314 21.1916 31.0838C22.1107 31.1198 23.0477 31.1383 24 31.1383C24.9784 31.1383 25.9455 31.1162 26.8975 31.0739C25.9628 32.344 25.019 33.5057 24.0796 34.54ZM33.8668 23.6993C34.5084 25.1616 35.0492 26.5765 35.4786 27.9218C34.0869 28.2393 32.5843 28.495 31.0011 28.6851C31.4994 27.8954 31.9912 27.0807 32.4746 26.2426C32.9635 25.3947 33.4278 24.5455 33.8668 23.6993ZM30.6984 25.2182C29.948 26.5192 29.1777 27.7611 28.3957 28.9334C26.9713 29.0353 25.4998 29.0877 24 29.0877C22.5063 29.0877 21.0533 29.0413 19.6541 28.9505C18.8406 27.7628 18.0535 26.5172 17.308 25.2294C16.5644 23.9451 15.8802 22.6499 15.2601 21.362C15.88 20.0711 16.5626 18.7744 17.3019 17.4924L17.3017 17.4927C18.043 16.2072 18.8231 14.9677 19.6292 13.7874C21.0567 13.6795 22.5205 13.6232 23.9999 13.6232C25.486 13.6232 26.9518 13.6799 28.3789 13.7888C29.1726 14.9604 29.9474 16.196 30.6916 17.4816C31.4442 18.7816 32.1356 20.0696 32.7609 21.3328C32.1375 22.6177 31.4477 23.9187 30.6984 25.2182ZM34.9284 2.31992C36.5357 3.24685 37.1608 6.98517 36.1509 11.8873C36.0865 12.2 36.014 12.5186 35.9352 12.8415C33.9438 12.382 31.7813 12.0401 29.5172 11.8277C28.1983 9.94949 26.8315 8.24198 25.4596 6.76371C25.8285 6.40888 26.1968 6.07054 26.5636 5.75125C30.1073 2.66732 33.4193 1.44972 34.9284 2.31992ZM24 17.0265C26.3672 17.0265 28.2862 18.9455 28.2862 21.3127C28.2862 23.6799 26.3672 25.599 24 25.599C21.6328 25.599 19.7138 23.6799 19.7138 21.3127C19.7138 18.9455 21.6328 17.0265 24 17.0265Z" fill="#00D8FF"/>
</svg>
