<svg width="47" height="47" viewBox="0 0 47 47" fill="none" xmlns="http://www.w3.org/2000/svg">
<path d="M0 23.4834V46.9668H23.4834H46.9668V23.4834V0H23.4834H0V23.4834Z" fill="#007ACC"/>
<path d="M10.3866 23.6392L10.3717 25.5626H13.4282H16.4848V34.2477V42.9329H18.6468H20.8087V34.2477V25.5626H23.8653H26.9219V23.6765C26.9219 22.6328 26.8995 21.7605 26.8697 21.7382C26.8473 21.7083 23.1273 21.6934 18.6169 21.7009L10.4089 21.7233L10.3866 23.6392Z" fill="white"/>
<path d="M37.8976 21.6686C39.0904 21.9668 39.9999 22.4962 40.8349 23.3609C41.2673 23.8232 41.9084 24.6656 41.9606 24.8669C41.9755 24.9265 39.9328 26.2982 38.6953 27.0661C38.6506 27.0959 38.4716 26.9021 38.2704 26.6039C37.6665 25.7242 37.0328 25.344 36.0637 25.2769C34.6397 25.18 33.7228 25.9255 33.7302 27.1705C33.7302 27.5358 33.7824 27.752 33.9315 28.0502C34.2446 28.6988 34.8261 29.0864 36.6526 29.8767C40.0148 31.3229 41.4537 32.2772 42.3483 33.634C43.3472 35.1474 43.5709 37.5628 42.8925 39.3595C42.147 41.3127 40.2981 42.6397 37.6963 43.0796C36.8912 43.2212 34.9827 43.1988 34.1179 43.0423C32.2318 42.7068 30.4425 41.7749 29.3392 40.5523C28.9068 40.0752 28.0644 38.8302 28.1166 38.7407C28.1389 38.7109 28.3328 38.5916 28.549 38.4649C28.7577 38.3456 29.5479 37.8908 30.2935 37.4584L31.6428 36.6757L31.9261 37.0931C32.3212 37.697 33.186 38.5245 33.7079 38.8004C35.2063 39.5906 37.2639 39.4788 38.2778 38.5692C38.7102 38.1741 38.8891 37.7641 38.8891 37.1602C38.8891 36.616 38.822 36.3775 38.5387 35.9674C38.1734 35.4456 37.4279 35.0057 35.3107 34.0888C32.8878 33.0451 31.8441 32.3965 30.8899 31.3677C30.3382 30.7713 29.8163 29.817 29.6001 29.0193C29.4212 28.3558 29.3765 26.6934 29.5181 26.0224C30.0176 23.6815 31.7845 22.0489 34.3341 21.5643C35.1616 21.4077 37.085 21.4674 37.8976 21.6686Z" fill="white"/>
</svg>
