<svg width="48" height="48" viewBox="0 0 48 48" fill="none" xmlns="http://www.w3.org/2000/svg">
<path fill-rule="evenodd" clip-rule="evenodd" d="M32.8516 38.2254C32.9182 38.0973 32.982 37.9842 33.0364 37.8672C33.0707 37.7923 33.1235 37.7773 33.198 37.7793C33.6445 37.7919 34.091 37.8057 34.5378 37.81C34.9174 37.814 35.2976 37.8069 35.6775 37.8025C36.1055 37.7974 36.5335 37.775 36.9611 37.7872C37.5305 37.8037 38.0854 37.9153 38.6005 38.1686C39.2156 38.4717 39.681 38.9332 39.9983 39.5412C40.2008 39.9294 40.3183 40.3412 40.3652 40.7787C40.433 41.4124 40.3884 42.0315 40.1874 42.6376C39.9384 43.3887 39.4655 43.9637 38.8085 44.3944C38.3029 44.7258 37.7485 44.9217 37.1542 45.0336C36.5252 45.1522 35.8943 45.114 35.2634 45.116C34.5713 45.1187 33.8797 45.1037 33.1877 45.0959C33.0667 45.0947 33.0494 45.0718 33.0813 44.9564L33.1109 44.85C33.1783 44.6379 33.2145 44.6285 33.4297 44.593C33.5786 44.569 33.7331 44.513 33.8581 44.4303C33.9306 44.3822 33.9605 44.2569 33.9889 44.1603C34.0133 44.076 34.0145 43.9834 34.0153 43.8943C34.0251 42.5446 34.0354 41.1952 34.0409 39.8463C34.0421 39.5054 34.0342 39.1637 34.0153 38.8232C34.0019 38.5848 33.8746 38.4217 33.5909 38.3653C33.3702 38.3216 33.1479 38.2877 32.926 38.2486L32.8516 38.2254ZM39.1869 41.4935C39.1569 41.2248 39.1423 40.9536 39.0943 40.6888C38.9792 40.0532 38.701 39.4995 38.2123 39.0656C37.4222 38.3645 36.4708 38.2565 35.4738 38.3401C35.2468 38.359 35.1979 38.4366 35.1944 38.6699C35.1889 39.001 35.1834 39.332 35.183 39.663C35.1814 40.7129 35.1814 41.7627 35.183 42.8125C35.1834 43.1113 35.1865 43.41 35.1952 43.7079C35.2046 44.0129 35.3154 44.271 35.6141 44.3893C36.085 44.5757 36.5804 44.5977 37.0746 44.5217C37.8639 44.4007 38.416 43.9408 38.7865 43.2515C39.0797 42.7046 39.1624 42.1075 39.1869 41.4935ZM41.1057 45.0683C41.0962 44.9047 41.1632 44.7696 41.246 44.6454C41.2684 44.6119 41.3457 44.6135 41.3989 44.6029L41.8505 44.5134C42.0101 44.4795 42.094 44.3723 42.1165 44.2159C42.1315 44.1126 42.1456 44.0082 42.1468 43.9038C42.1567 43.0774 42.1661 42.251 42.1701 41.4246C42.174 40.597 42.1709 39.7694 42.1709 38.9418L42.1673 38.7838C42.1512 38.5178 42.0227 38.3799 41.7587 38.3409L41.1861 38.2538C41.1155 38.2443 41.0899 38.2104 41.1155 38.1478C41.1596 38.041 41.2018 37.9302 41.2641 37.8341C41.2873 37.7986 41.3658 37.7848 41.4186 37.786C41.6921 37.7899 41.9656 37.8104 42.239 37.81L44.6197 37.7958C45.0784 37.7955 45.5214 37.8754 45.9328 38.095C46.3856 38.3361 46.639 38.7093 46.7115 39.2177C46.7872 39.7517 46.6252 40.2017 46.2351 40.5592C46.0747 40.7065 45.867 40.8027 45.681 40.9225L45.6203 40.9603C45.7929 41.0238 45.9572 41.0786 46.1172 41.144C46.5854 41.3359 46.9578 41.6358 47.1549 42.1146C47.3105 42.4925 47.3105 42.8866 47.2183 43.2783C47.0749 43.8915 46.6709 44.2994 46.1456 44.608C45.6526 44.8976 45.119 45.0663 44.5507 45.0947C44.0266 45.1211 43.5001 45.1112 42.9748 45.1171L42.6706 45.1187C42.1646 45.1073 41.6582 45.0943 41.1518 45.0809L41.1057 45.0683ZM43.2877 42.6687H43.2928C43.2928 42.928 43.2893 43.1873 43.294 43.4466C43.2972 43.6145 43.2913 43.7871 43.3275 43.9487C43.3819 44.1903 43.4922 44.4082 43.7634 44.4775C44.1295 44.5717 44.5035 44.5906 44.8739 44.5264C45.3377 44.4456 45.7078 44.2131 45.9107 43.7713C46.0613 43.4431 46.0837 43.0951 46.0321 42.7396C45.9635 42.2715 45.7149 41.9318 45.3015 41.7091C45.0303 41.5629 44.7411 41.4734 44.4329 41.4616C44.0877 41.4486 43.7421 41.4478 43.3969 41.4372C43.2999 41.4344 43.2865 41.4837 43.2869 41.5633C43.2889 41.9314 43.2877 42.2998 43.2877 42.6687ZM44.0227 40.9052C44.2114 40.8957 44.425 40.893 44.6374 40.8717C45.0441 40.8311 45.3306 40.6266 45.48 40.2376C45.5561 40.0402 45.5529 39.8368 45.5549 39.6315C45.5608 39.0967 45.2487 38.6585 44.7407 38.4772C44.3486 38.3373 43.9442 38.335 43.5376 38.346C43.3728 38.3503 43.2991 38.4224 43.2968 38.5883L43.2723 40.7515C43.2712 40.8374 43.3082 40.8744 43.3917 40.8772L44.0227 40.9052Z" fill="#94795D"/>
<path fill-rule="evenodd" clip-rule="evenodd" d="M2.61849 44.6525L2.58973 45.0245C2.32175 45.0245 2.07466 45.0226 1.82757 45.0253C1.36215 45.0301 0.89674 45.0375 0.430932 45.0442L0.386006 45.047C0.319406 45.0391 0.198422 45.0391 0.19527 45.0194C0.175565 44.9087 0.181871 44.7924 0.186994 44.6777C0.187388 44.6647 0.232708 44.6482 0.259111 44.6419L0.621275 44.5611C0.847085 44.5024 0.92669 44.405 0.937331 44.1717C0.949547 43.9089 0.961764 43.6456 0.962946 43.3828C0.966493 42.7357 0.962552 42.0894 0.965311 41.4423C0.965705 41.291 0.913291 41.1783 0.772209 41.1168C0.604329 41.0427 0.435661 40.9702 0.265811 40.9016C0.185418 40.8693 0.0809851 40.8516 0.0904431 40.7436C0.0999011 40.6336 0.201181 40.6049 0.296549 40.5832C0.691422 40.493 1.08669 40.4051 1.48038 40.3089C1.60727 40.2778 1.72865 40.2254 1.88037 40.1726C1.88826 40.2545 1.90284 40.3326 1.90126 40.4106L1.87801 40.7814C1.87762 40.8232 1.89929 40.8792 1.93042 40.9024C1.94934 40.917 2.01279 40.8906 2.04431 40.8662C2.38086 40.61 2.73711 40.3889 3.14341 40.2601C3.77277 40.0603 4.31306 40.2455 4.69138 40.7881C4.82458 40.9793 4.82497 40.9793 5.0098 40.8457C5.32704 40.6151 5.65886 40.4118 6.03008 40.2778C6.84505 39.9834 7.6281 40.357 7.91144 41.1779C8.01469 41.4758 8.0541 41.7836 8.05331 42.0981L8.04583 44.1859C8.04543 44.3581 8.10257 44.4563 8.26651 44.5099C8.45055 44.5702 8.64129 44.6115 8.84857 44.6659L8.8005 45.0249C8.56483 45.0249 8.34809 45.0234 8.13134 45.0253C7.60169 45.0301 7.07204 45.0328 6.54279 45.045C6.45057 45.0474 6.42653 45.0245 6.4218 44.9382C6.40643 44.662 6.40407 44.6624 6.66417 44.6001L6.75165 44.5776C7.00584 44.5083 7.09056 44.4303 7.09253 44.1725C7.09845 43.4324 7.11382 42.6904 7.07638 41.9519C7.03736 41.1858 6.42929 40.7779 5.68684 40.9741C5.44447 41.038 5.22497 41.1499 5.02083 41.2949C4.95187 41.3442 4.93886 41.4009 4.94438 41.4872C4.96527 41.8135 4.97827 42.1402 4.98103 42.4669C4.98576 43.0387 4.97867 43.6106 4.98103 44.1828C4.98182 44.4145 5.06103 44.5032 5.28999 44.5568L5.63009 44.6352L5.69314 44.6494C5.69787 44.7581 5.7022 44.8669 5.69708 44.9757C5.69393 45.0438 5.64112 45.0498 5.58201 45.0486C5.25137 45.0403 4.92034 45.0293 4.5897 45.0301C4.18734 45.0308 3.78538 45.0423 3.38341 45.0494H3.28883C3.28883 44.9339 3.28331 44.8236 3.29277 44.7136C3.29474 44.6872 3.34125 44.6502 3.37317 44.6419L3.76961 44.5579C3.93789 44.5166 4.01828 44.4303 4.02774 44.2592C4.07267 43.4671 4.10498 42.6746 4.0305 41.8829C4.01592 41.7292 3.96587 41.5731 3.90203 41.4317C3.69907 40.9832 3.24233 40.796 2.71544 40.9308C2.4652 40.9946 2.23939 41.1093 2.02579 41.2539C1.92491 41.3225 1.87683 41.4131 1.87683 41.5278C1.87683 42.318 1.87959 43.1081 1.88195 43.8978L1.88629 44.2025C1.89101 44.4149 1.98126 44.5268 2.1921 44.5725C2.32766 44.6033 2.4648 44.6241 2.61849 44.6525Z" fill="#50382B"/>
<path fill-rule="evenodd" clip-rule="evenodd" d="M26.4437 40.2534C26.5048 40.5505 26.5036 40.8177 26.2853 41.0203C26.0686 41.2216 25.7943 41.1538 25.5267 41.1089C25.5515 41.25 25.5791 41.3698 25.5925 41.4912C25.6899 42.3932 25.3017 43.0628 24.465 43.4454C24.149 43.5897 23.8136 43.6433 23.4712 43.6709C23.3009 43.6843 23.1519 43.8143 23.1358 43.9542C23.1192 44.0961 23.2083 44.2419 23.3864 44.2845C23.5965 44.3345 23.8156 44.3487 24.0311 44.3735C24.4938 44.4263 24.9616 44.4504 25.4187 44.5331C26.1099 44.6576 26.4958 45.261 26.374 45.9554C26.2656 46.5733 25.9078 47.0229 25.4089 47.3678C24.5683 47.9502 23.6461 48.1205 22.6641 47.8233C22.1025 47.6531 21.7064 47.2838 21.5697 46.6864C21.5011 46.3873 21.574 46.1165 21.7991 45.9136C22.0666 45.6732 22.3579 45.4588 22.6381 45.2318L22.7287 45.1408L22.6247 45.0679C22.339 44.9323 22.1104 44.7467 22.0217 44.4244C21.9914 44.3152 22.0229 44.2435 22.1155 44.1875C22.2731 44.0925 22.43 43.996 22.5856 43.8979C22.6589 43.8521 22.7315 43.8049 22.7996 43.752C22.8926 43.6811 22.8844 43.6283 22.7732 43.5873C22.5147 43.4919 22.285 43.3536 22.1068 43.1408C21.8093 42.7857 21.725 42.3629 21.7494 41.9164C21.7876 41.2189 22.1663 40.7594 22.7819 40.4638C23.5137 40.1127 24.2479 40.0906 24.9939 40.4106C25.2698 40.5288 25.5606 40.554 25.8565 40.5336C26.0776 40.5178 26.2707 40.4342 26.4437 40.2534ZM23.747 45.2507C23.1977 45.246 23.0254 45.3138 22.7031 45.6421C22.3421 46.0101 22.3441 46.5205 22.7043 46.8901C22.9778 47.1703 23.319 47.3016 23.6985 47.341C24.1419 47.3867 24.5785 47.3682 24.9813 47.1463C25.4108 46.9087 25.6244 46.4673 25.5279 46.0228C25.4479 45.6559 25.1775 45.488 24.8485 45.3914C24.4741 45.2819 24.0871 45.261 23.747 45.2507ZM22.668 41.7402C22.6881 41.8928 22.6964 42.0472 22.7303 42.1966C22.8182 42.5836 22.9864 42.9237 23.3715 43.0959C23.8235 43.2988 24.4008 43.2118 24.5986 42.5773C24.7342 42.1426 24.7176 41.7111 24.5541 41.287C24.4812 41.0979 24.3638 40.9379 24.1955 40.8204C23.803 40.5466 23.0948 40.5103 22.8063 41.1156C22.7125 41.3123 22.6759 41.5215 22.668 41.7402Z" fill="#4F382B"/>
<path fill-rule="evenodd" clip-rule="evenodd" d="M17.1243 40.156C17.1388 40.2234 17.168 40.2999 17.1688 40.3767C17.17 40.5229 17.1542 40.6691 17.1459 40.8153V40.9422L17.2697 40.8476C17.6086 40.5686 17.9727 40.331 18.3968 40.2029C19.1621 39.9724 19.9266 40.3913 20.176 41.1708C20.2706 41.4671 20.3081 41.7718 20.3116 42.0815C20.3195 42.7696 20.3242 43.4577 20.3313 44.1457C20.3337 44.3928 20.3621 44.437 20.5957 44.5083C20.7282 44.5489 20.8649 44.5772 21.0016 44.5985C21.0769 44.6104 21.1092 44.6399 21.1053 44.7136L21.1061 44.7814C21.1033 45.0663 21.0836 45.0793 20.8074 45.0785C20.1461 45.0773 19.4852 45.0813 18.8239 45.0868C18.6269 45.0884 18.6265 45.0943 18.6068 44.8996L18.6029 44.7877C18.6151 44.6198 18.619 44.6214 18.7841 44.597C18.8953 44.5804 19.0056 44.5548 19.114 44.5264C19.2255 44.4976 19.2791 44.4153 19.2941 44.3049C19.3016 44.249 19.3114 44.193 19.311 44.1371C19.3016 43.3851 19.3138 42.6324 19.2728 41.8817C19.2397 41.2744 18.7763 40.9127 18.1666 40.954C17.8675 40.9749 17.5972 41.0746 17.3505 41.2468C17.1877 41.3607 17.155 41.5251 17.1558 41.702C17.1589 42.4051 17.1656 43.1081 17.1731 43.8115C17.1747 43.9656 17.179 44.1197 17.1936 44.2726C17.209 44.4397 17.2677 44.5071 17.4316 44.5434C17.5885 44.578 17.7485 44.5981 17.916 44.6261L17.9302 44.7554C17.9357 45.0569 17.9041 45.0793 17.6113 45.0781C16.9276 45.0754 16.2439 45.0797 15.5605 45.0872C15.4529 45.0888 15.4072 45.0549 15.41 44.9501L15.4084 44.9051C15.3907 44.6336 15.3986 44.6234 15.6555 44.5792L15.7769 44.5548C16.0551 44.4921 16.1264 44.418 16.1304 44.1355C16.1434 43.2405 16.1481 42.3459 16.1572 41.451C16.1584 41.3225 16.1099 41.2228 15.9901 41.1696C15.8222 41.0955 15.6527 41.025 15.4829 40.9552C15.3891 40.9166 15.2819 40.8922 15.2784 40.7625C15.276 40.6711 15.3737 40.5903 15.5073 40.5631C15.7757 40.5087 16.0464 40.4634 16.3117 40.3968C16.5757 40.331 16.835 40.2427 17.1243 40.156Z" fill="#4F372B"/>
<path fill-rule="evenodd" clip-rule="evenodd" d="M31.9075 42.4937C31.8949 43.3296 31.6778 44.0054 31.0867 44.5126C30.3379 45.1562 29.1698 45.3749 28.215 44.8937C27.8075 44.6884 27.508 44.3735 27.3129 43.9648C27.0138 43.3363 26.9389 42.6754 27.095 41.9984C27.2495 41.3288 27.655 40.8437 28.2619 40.5296C28.8861 40.2069 29.5434 40.0807 30.2366 40.2502C31.1135 40.4642 31.7436 41.1791 31.8689 42.0894C31.8914 42.249 31.9 42.4106 31.9075 42.4937ZM30.892 42.9465L30.8581 42.9426C30.8581 42.8638 30.8624 42.785 30.8573 42.7061C30.8285 42.2151 30.7182 41.7473 30.4337 41.3363C30.1637 40.9469 29.796 40.7172 29.3176 40.6837C28.7821 40.6459 28.332 40.9454 28.174 41.4924C27.9367 42.3136 28.0171 43.114 28.4341 43.8663C28.6158 44.1942 28.8849 44.4362 29.2455 44.5635C29.9521 44.8121 30.5787 44.4902 30.7627 43.7666C30.8305 43.4994 30.8502 43.22 30.892 42.9465Z" fill="#4F382B"/>
<path fill-rule="evenodd" clip-rule="evenodd" d="M14.5501 42.5584C14.5355 43.1582 14.394 43.7126 14.0236 44.1946C13.6267 44.7108 13.0813 44.9867 12.461 45.103C11.7277 45.2401 11.0388 45.1156 10.4496 44.6234C10.1698 44.3893 9.9787 44.0894 9.8526 43.7481C9.6457 43.1885 9.59408 42.6151 9.72137 42.0307C9.85733 41.4053 10.2104 40.9272 10.7578 40.6065C11.3907 40.2364 12.0737 40.0713 12.8031 40.2376C13.741 40.452 14.2825 41.0632 14.4827 41.9885C14.5229 42.1753 14.5284 42.3684 14.5501 42.5584ZM13.5231 42.954L13.4959 42.9501V42.8374C13.4805 42.2872 13.373 41.7631 13.0447 41.306C12.8015 40.9667 12.476 40.7538 12.0587 40.6943C11.3785 40.5974 10.934 41.0009 10.7866 41.5491C10.5943 42.2652 10.6546 42.9725 10.9521 43.6515C11.1377 44.0748 11.4309 44.4046 11.8813 44.5646C12.5836 44.8141 13.2197 44.4839 13.3974 43.7631C13.4628 43.4994 13.4825 43.2244 13.5231 42.954Z" fill="#4F372B"/>
<path fill-rule="evenodd" clip-rule="evenodd" d="M30.9213 11.9814C31.4049 13.3792 31.7525 14.8062 31.8671 16.2848C32.009 18.1196 31.9444 19.9419 31.5574 21.7464L31.5077 21.8906C31.3864 21.891 31.2626 21.8756 31.144 21.8942C30.1418 22.0518 29.1409 22.2149 28.1395 22.3773C27.1042 22.5452 26.0682 22.7064 25.0349 22.8853C24.6688 22.9483 24.2156 22.8731 24.0678 23.3791L23.9969 23.4031L24.0469 20.3773L23.9961 13.0765L24.4785 12.9938C25.267 12.8649 26.0556 12.7337 26.8453 12.6079C27.7872 12.4586 28.7298 12.3128 29.6725 12.167C30.0886 12.1031 30.5052 12.0436 30.9213 11.9814Z" fill="#439934"/>
<path fill-rule="evenodd" clip-rule="evenodd" d="M23.0015 32.2243C22.4928 31.7868 21.9663 31.3687 21.4788 30.9084C18.855 28.4336 16.9354 25.5201 15.99 22.0076C15.7295 21.0413 15.5561 20.0589 15.5002 19.0603C15.4607 18.3612 15.4044 17.6562 15.454 16.9606C15.5853 15.1112 15.8529 13.2795 16.3951 11.4978L16.4251 11.4564C16.4779 11.5266 16.5535 11.5888 16.5803 11.668C17.11 13.227 17.6353 14.7876 18.1583 16.3494C19.8012 21.2561 21.4422 26.164 23.0879 31.07C23.1202 31.1658 23.2033 31.2442 23.2632 31.3305L23.0015 32.2243Z" fill="#45A538"/>
<path fill-rule="evenodd" clip-rule="evenodd" d="M30.9214 11.9813C30.5048 12.0432 30.0883 12.1031 29.6725 12.167C28.7299 12.3128 27.7872 12.4586 26.8453 12.6079C26.056 12.7333 25.2674 12.8645 24.4785 12.9938L23.9961 13.0765L23.9922 12.762C23.976 12.5035 23.9492 12.245 23.9457 11.9865L23.8917 7.03914C23.8791 6.00703 23.8601 4.97492 23.8393 3.94321C23.8263 3.30203 23.8125 2.66047 23.7837 2.02008C23.7679 1.67604 23.7124 1.33358 23.6903 0.989548C23.6773 0.791717 23.6946 0.592311 23.699 0.393692C23.9449 0.87014 24.1857 1.35013 24.4383 1.82304C24.8375 2.57061 25.4739 3.12154 26.0473 3.72252C28.3117 6.09925 29.9192 8.86099 30.9214 11.9813Z" fill="#46A037"/>
<path fill-rule="evenodd" clip-rule="evenodd" d="M23.997 23.4031L24.068 23.3791C24.2157 22.8731 24.6689 22.9483 25.035 22.8853C26.0683 22.7064 27.1044 22.5452 28.1396 22.3773C29.141 22.2153 30.142 22.0522 31.1441 21.8941C31.2628 21.8756 31.3865 21.891 31.5079 21.8906C31.3207 22.559 31.1733 23.2419 30.9357 23.8918C30.6657 24.6287 30.3394 25.3483 29.993 26.0537C29.4752 27.1079 28.8301 28.0915 28.0805 28.9928C27.5028 29.6872 26.8589 30.3299 26.2137 30.964C25.8567 31.3143 25.4366 31.6 25.0449 31.9153L24.9432 31.846L24.5779 31.5338L24.2 30.7047C23.9395 29.7345 23.8031 28.7469 23.7803 27.7428L23.7874 27.5741L23.839 26.8435C23.8559 26.594 23.8788 26.3449 23.8894 26.0955C23.9273 25.1985 23.9612 24.3008 23.997 23.4031Z" fill="#409433"/>
<path fill-rule="evenodd" clip-rule="evenodd" d="M23.9973 23.4031C23.9618 24.3008 23.9279 25.1989 23.8897 26.0967C23.8791 26.3465 23.8566 26.5956 23.8392 26.8446L23.6091 26.9317C23.0976 25.4259 22.5857 23.9359 22.0852 22.4423C21.2572 19.971 20.4395 17.4962 19.6127 15.0241C18.9455 13.0292 18.2724 11.0356 17.5958 9.04346C17.5638 8.95045 17.4732 8.87715 17.4102 8.79479L18.884 6.08467C18.9349 6.17255 19.0015 6.25492 19.0334 6.3495C19.7152 8.36721 20.3957 10.3853 21.0704 12.4054C21.9484 15.0339 22.8205 17.6637 23.6978 20.2926C23.7328 20.3974 23.7904 20.4944 23.8456 20.6122L24.0473 20.3773C24.0304 21.3862 24.0138 22.3942 23.9973 23.4031Z" fill="#4FAA41"/>
<path fill-rule="evenodd" clip-rule="evenodd" d="M17.41 8.79478C17.4735 8.87715 17.5641 8.95045 17.5956 9.04345C18.2723 11.0355 18.9454 13.0288 19.6126 15.0241C20.4393 17.4962 21.2571 19.971 22.085 22.4423C22.5855 23.9359 23.0974 25.4255 23.609 26.9317L23.8391 26.8446L23.7875 27.5753L23.7406 27.7435C23.6606 28.5431 23.5932 29.3443 23.4955 30.1423C23.4466 30.5423 23.3422 30.9348 23.263 31.3305C23.2035 31.2442 23.1199 31.1658 23.0876 31.07C21.4415 26.1641 19.8009 21.2561 18.158 16.3494C17.635 14.7876 17.1093 13.2271 16.5801 11.6681C16.5533 11.5888 16.4776 11.5266 16.4248 11.4564L17.41 8.79478Z" fill="#4AA73C"/>
<path fill-rule="evenodd" clip-rule="evenodd" d="M24.0471 20.3773L23.8453 20.6122C23.7901 20.4944 23.7326 20.3974 23.6975 20.2926C22.8203 17.6637 21.9482 15.0339 21.0702 12.4054C20.3955 10.3853 19.7149 8.3672 19.0331 6.34949C19.0012 6.25491 18.9346 6.17255 18.8838 6.08467L20.7064 3.68706C20.764 3.76351 20.8459 3.83169 20.8755 3.91799C21.3815 5.39975 21.8828 6.88269 22.3817 8.36681C22.8475 9.7532 23.3062 11.1412 23.7775 12.5252C23.8091 12.6178 23.919 12.6832 23.9923 12.762L23.9962 13.0765L24.0471 20.3773Z" fill="#57AE47"/>
<path fill-rule="evenodd" clip-rule="evenodd" d="M23.9919 12.762C23.9182 12.6836 23.8087 12.6182 23.7772 12.5252C23.3062 11.1412 22.8471 9.75319 22.3813 8.36681C21.8824 6.88268 21.3811 5.39974 20.8751 3.91799C20.8456 3.83168 20.7636 3.76351 20.7061 3.68705C21.2988 3.10657 21.8729 2.50519 22.4897 1.95151C23.0379 1.45969 23.4784 0.932404 23.4989 0.154875L23.5423 0L23.6983 0.393296C23.6944 0.591915 23.6767 0.791321 23.6897 0.989152C23.7121 1.33319 23.7677 1.67565 23.7831 2.01968C23.8118 2.66007 23.8256 3.30164 23.8386 3.94281C23.8595 4.97453 23.8784 6.00663 23.891 7.03874L23.945 11.9861C23.949 12.245 23.9762 12.5035 23.9919 12.762Z" fill="#60B24F"/>
<path fill-rule="evenodd" clip-rule="evenodd" d="M23.263 31.3301C23.3423 30.9344 23.4467 30.5419 23.4956 30.1419C23.5933 29.3443 23.6607 28.5427 23.7407 27.7431L23.7608 27.74L23.7805 27.7435C23.8033 28.7477 23.9397 29.7352 24.2002 30.7055C24.147 30.7756 24.0725 30.8375 24.0441 30.9163C23.8254 31.5334 23.6189 32.1557 23.399 32.7724C23.3691 32.8568 23.2847 32.9226 23.226 32.9963L23.001 32.2239L23.263 31.3301Z" fill="#A9AA88"/>
<path fill-rule="evenodd" clip-rule="evenodd" d="M23.2266 32.9967C23.2853 32.9226 23.3696 32.8572 23.3996 32.7728C23.6195 32.1561 23.826 31.5338 24.0447 30.9167C24.0727 30.8379 24.1475 30.776 24.2007 30.7059L24.5787 31.535C24.5042 31.6406 24.4009 31.7364 24.3596 31.8542L23.636 33.9791C23.6061 34.0647 23.5048 34.1246 23.4362 34.1967L23.2266 32.9967Z" fill="#B6B598"/>
<path fill-rule="evenodd" clip-rule="evenodd" d="M23.4355 34.1963C23.5037 34.1242 23.6054 34.0643 23.6353 33.9787L24.3589 31.8538C24.3999 31.736 24.5035 31.6403 24.578 31.5346L24.9437 31.8464C24.7672 32.0209 24.669 32.2227 24.7281 32.4777L24.617 32.8414C24.5666 32.9037 24.4933 32.9581 24.4684 33.0294C24.2158 33.7529 23.975 34.4804 23.7205 35.2036C23.6882 35.295 23.5987 35.3671 23.536 35.4483L23.4355 34.1963Z" fill="#C2C1A7"/>
<path fill-rule="evenodd" clip-rule="evenodd" d="M23.536 35.4479C23.5991 35.3667 23.6885 35.2946 23.7204 35.2032C23.975 34.48 24.2162 33.7525 24.4684 33.029C24.4932 32.9577 24.5665 32.9037 24.617 32.841L24.4637 34.5104C24.4227 34.5577 24.3636 34.599 24.3439 34.6538L23.8339 36.1151C23.7981 36.2148 23.7295 36.3038 23.6759 36.3972C23.6282 36.335 23.5431 36.2747 23.5392 36.21C23.5242 35.957 23.5348 35.7021 23.536 35.4479Z" fill="#CECDB7"/>
<path fill-rule="evenodd" clip-rule="evenodd" d="M23.6758 36.3976C23.7294 36.3042 23.7979 36.2152 23.8338 36.1155L24.3438 34.6542C24.3635 34.599 24.423 34.558 24.4636 34.5108L24.4675 35.6063L24.1006 36.547L23.6758 36.3976Z" fill="#DBDAC7"/>
<path fill-rule="evenodd" clip-rule="evenodd" d="M24.1016 36.547L24.4685 35.6063L24.5441 36.7192L24.1016 36.547Z" fill="#EBE9DC"/>
<path fill-rule="evenodd" clip-rule="evenodd" d="M24.728 32.4777C24.6693 32.2231 24.767 32.0213 24.9436 31.8464L25.0453 31.9157L24.728 32.4777Z" fill="#CECDB7"/>
<path fill-rule="evenodd" clip-rule="evenodd" d="M23.781 27.7439L23.7613 27.7404L23.7412 27.7435L23.7881 27.5753L23.781 27.7439Z" fill="#4FAA41"/>
</svg>
