<svg width="42" height="57" viewBox="0 0 42 57" fill="none" xmlns="http://www.w3.org/2000/svg">
<path d="M13.4235 43.7066C13.4235 43.7066 11.2652 44.9626 14.9616 45.3864C19.4403 45.898 21.729 45.8247 26.6633 44.892C26.6633 44.892 27.9632 45.7047 29.7751 46.4092C18.71 51.1496 4.73365 46.1344 13.4235 43.7066ZM12.0707 37.5196C12.0707 37.5196 9.64931 39.3121 13.3488 39.6952C18.1332 40.1891 21.9106 40.2294 28.4503 38.9707C28.4503 38.9707 29.3527 39.8876 30.7739 40.3883C17.3984 44.3002 2.50062 40.6962 12.0707 37.5196Z" fill="#0074BD"/>
<path d="M23.4676 27.0228C26.1955 30.1627 22.7522 32.9857 22.7522 32.9857C22.7522 32.9857 29.6745 29.4129 26.4961 24.9369C23.5265 20.7647 21.25 18.6924 33.5751 11.5441C33.5751 11.5446 14.2281 16.3751 23.4676 27.0228Z" fill="#EA2D2E"/>
<path d="M38.1017 48.2836C38.1017 48.2836 39.6995 49.6012 36.3414 50.6194C29.9565 52.5537 9.76144 53.1368 4.15261 50.6969C2.13735 49.8194 5.91793 48.6028 7.10734 48.3461C8.34746 48.0776 9.05559 48.1265 9.05559 48.1265C6.81305 46.5477 -5.43874 51.228 2.83325 52.5704C25.3904 56.2269 43.9519 50.9237 38.1017 48.2836ZM14.4625 31.108C14.4625 31.108 4.19109 33.548 10.8254 34.435C13.6271 34.8098 19.2097 34.7238 24.4133 34.2874C28.6648 33.9301 32.9312 33.1672 32.9312 33.1672C32.9312 33.1672 31.4334 33.8097 30.3486 34.5495C19.916 37.2937 -0.232865 36.0155 5.5684 33.2102C10.4727 30.8382 14.4625 31.108 14.4625 31.108ZM32.8886 41.4071C43.4928 35.8983 38.5894 30.6041 35.1669 31.3172C34.3302 31.4915 33.9549 31.6432 33.9549 31.6432C33.9549 31.6432 34.2664 31.1547 34.8604 30.9446C41.6306 28.5653 46.8365 37.9638 32.6767 41.6864C32.6767 41.6855 32.8393 41.5384 32.8886 41.4071Z" fill="#0074BD"/>
<path d="M26.4963 0C26.4963 0 32.3678 5.87506 20.926 14.9063C11.7503 22.1533 18.8338 26.2843 20.9228 31.0062C15.5662 26.1738 11.6371 21.9192 14.2726 17.9598C18.1428 12.149 28.8647 9.33056 26.4963 0Z" fill="#EA2D2E"/>
<path d="M15.5046 56.3392C25.6809 56.9898 41.3121 55.977 41.682 51.1614C41.682 51.1614 40.9707 52.987 33.271 54.4353C24.5843 56.0707 13.8683 55.8801 7.51465 54.8311C7.51465 54.8315 8.81634 55.9091 15.5046 56.3392Z" fill="#0074BD"/>
</svg>
