<?xml version="1.0" encoding="UTF-8" ?>
<!DOCTYPE svg PUBLIC "-//W3C//DTD SVG 1.1//EN" "http://www.w3.org/Graphics/SVG/1.1/DTD/svg11.dtd">
<svg width="154pt" height="78pt" viewBox="0 0 154 78" version="1.1" xmlns="http://www.w3.org/2000/svg">
<g id="#ffffffff">
</g>
<g id="#23272bff">
<path fill="#23272b" opacity="1.00" d=" M 13.47 13.46 C 22.30 10.63 31.80 9.06 41.03 10.64 C 31.21 11.02 21.13 12.16 12.39 17.04 C 12.66 16.15 13.20 14.36 13.47 13.46 Z" />
<path fill="#23272b" opacity="1.00" d=" M 24.49 13.48 C 25.82 13.81 27.15 14.15 28.47 14.49 C 29.03 19.98 28.90 25.51 28.46 31.01 C 31.80 28.52 35.26 25.96 39.37 24.93 C 36.06 27.89 31.78 29.52 28.38 32.39 C 26.60 43.65 24.06 54.77 20.78 65.69 C 20.31 67.57 18.97 69.02 17.77 70.47 C 13.93 67.07 9.37 62.76 10.52 57.08 C 12.27 47.68 18.91 40.18 25.47 33.62 C 25.88 26.90 26.19 20.06 24.49 13.48 M 13.04 53.21 C 11.73 57.19 12.05 62.01 15.39 64.93 C 16.96 63.01 17.72 60.61 18.65 58.34 C 21.46 51.05 24.44 43.63 24.96 35.74 C 19.87 40.66 15.29 46.41 13.04 53.21 Z" />
<path fill="#23272b" opacity="1.00" d=" M 51.73 39.89 C 54.53 32.30 60.78 25.49 69.00 24.06 C 70.72 23.64 72.31 24.53 73.85 25.14 C 72.45 28.11 71.43 31.23 70.76 34.45 C 67.90 31.76 70.24 27.85 71.03 24.81 C 63.45 26.42 58.04 33.20 55.50 40.18 C 54.63 42.64 53.79 46.81 57.11 47.80 C 64.07 49.14 70.22 44.54 74.80 39.85 C 71.79 45.62 65.42 49.27 58.93 49.12 C 56.59 49.28 54.00 48.55 52.62 46.53 C 51.10 44.64 51.77 42.10 51.73 39.89 Z" />
<path fill="#23272b" opacity="1.00" d=" M 95.69 24.98 C 97.83 24.19 100.10 23.96 102.37 24.11 C 102.11 30.94 100.09 37.64 100.69 44.50 C 103.46 42.48 103.66 38.79 104.97 35.89 C 104.99 40.09 102.92 43.82 101.12 47.47 C 100.04 46.68 98.80 46.05 97.92 45.02 C 97.59 41.37 98.54 37.74 98.85 34.12 C 97.02 32.19 95.06 29.74 92.07 30.06 C 87.61 30.69 83.75 33.49 80.50 36.47 C 79.06 37.97 77.23 39.88 77.69 42.15 C 79.39 43.83 81.99 42.84 83.68 41.67 C 87.29 39.17 90.79 35.90 91.91 31.48 C 92.95 31.94 93.99 32.41 95.03 32.89 C 91.49 43.94 89.58 55.51 89.41 67.11 C 87.29 57.25 89.01 47.13 89.95 37.23 C 87.50 40.01 84.98 43.46 81.07 44.07 C 79.02 44.52 76.37 43.35 76.23 41.05 C 75.59 37.61 77.94 34.54 80.66 32.75 C 85.07 29.87 90.82 27.66 95.92 30.13 C 97.06 30.73 98.26 31.20 99.46 31.67 C 99.45 30.38 99.43 27.79 99.43 26.49 C 98.18 25.98 96.94 25.47 95.69 24.98 Z" />
<path fill="#23272b" opacity="1.00" d=" M 115.22 37.08 C 115.88 32.58 116.72 28.11 117.97 23.73 C 120.44 25.89 123.58 27.00 126.16 28.95 C 126.42 33.23 121.43 35.28 118.31 37.20 C 118.19 40.11 118.23 43.14 119.78 45.72 C 124.71 45.47 126.49 40.44 128.71 36.89 C 127.97 40.72 125.74 44.22 122.86 46.80 C 121.26 48.28 118.58 48.50 117.03 46.81 C 115.39 44.80 115.54 42.02 115.02 39.61 C 112.81 42.82 111.98 47.26 108.36 49.30 C 107.86 48.74 106.87 47.64 106.37 47.08 C 106.26 42.84 106.82 38.61 106.60 34.36 C 106.17 35.43 105.32 37.57 104.89 38.64 C 105.29 34.37 106.74 30.31 107.82 26.19 C 108.96 26.10 109.64 27.18 110.52 27.72 C 109.47 33.20 108.59 38.81 108.76 44.40 C 109.08 44.66 109.70 45.17 110.01 45.43 C 112.45 43.19 113.80 40.02 115.22 37.08 M 118.52 35.67 C 121.09 34.19 123.88 32.33 124.03 29.04 C 123.18 28.56 121.48 27.59 120.64 27.11 C 119.66 29.88 119.01 32.76 118.52 35.67 Z" />
<path fill="#23272b" opacity="1.00" d=" M 137.59 24.45 C 138.71 23.41 139.99 24.85 141.12 25.12 C 139.82 28.01 138.64 30.96 138.01 34.07 C 137.70 31.89 138.34 29.76 138.70 27.63 C 135.56 29.58 132.20 32.38 131.49 36.17 C 132.34 38.38 134.56 39.59 136.23 41.11 C 138.80 39.87 141.34 38.59 143.88 37.28 C 143.78 37.57 143.60 38.15 143.50 38.44 C 141.49 39.59 139.46 40.69 137.46 41.84 C 137.56 47.06 130.20 47.51 127.26 44.49 C 130.14 43.87 132.98 43.07 135.71 41.93 C 133.63 39.55 130.32 37.55 130.19 34.06 C 129.92 29.53 134.22 26.62 137.59 24.45 Z" />
<path fill="#23272b" opacity="1.00" d=" M 44.36 26.47 C 46.24 25.53 47.89 27.18 49.49 27.92 C 47.96 33.24 46.79 38.72 46.67 44.27 C 48.87 42.30 50.11 39.57 51.79 37.19 C 50.77 40.12 49.69 43.20 47.52 45.51 C 46.52 46.58 45.48 46.58 44.38 45.53 C 43.80 41.06 45.35 36.66 45.80 32.25 C 42.84 35.95 40.68 41.02 36.04 42.94 C 33.81 43.54 32.75 40.79 33.40 39.04 C 34.73 33.47 39.07 28.61 44.36 26.47 M 35.07 41.08 C 36.30 40.75 37.66 40.56 38.61 39.61 C 42.03 36.57 44.82 32.83 46.89 28.76 C 41.29 30.43 36.26 35.26 35.07 41.08 Z" />
</g>
<g id="#ba32efff">
<path fill="#ba32ef" opacity="1.00" d=" M 28.00 51.00 C 47.00 50.99 66.00 51.00 85.00 51.00 C 85.00 51.75 85.00 53.25 85.00 54.00 C 66.00 54.00 47.00 54.00 28.00 54.00 C 28.00 53.25 28.00 51.75 28.00 51.00 Z" />
<path fill="#ba32ef" opacity="1.00" d=" M 94.00 51.00 C 109.83 51.00 125.65 51.00 141.48 51.00 C 141.48 51.75 141.48 53.25 141.48 53.99 C 125.65 54.01 109.83 54.00 94.00 54.00 C 94.00 53.25 94.00 51.75 94.00 51.00 Z" />
</g>
</svg>
