<svg width="66" height="26" viewBox="0 0 66 26" fill="none" xmlns="http://www.w3.org/2000/svg">
<path d="M22.6689 5.3096C25.0213 12.5029 25.9122 25.3343 32.7907 25.3343C33.3137 25.3343 33.8436 25.2832 34.3746 25.182C28.1223 23.7244 27.381 11.0325 23.5652 4.45911C23.2659 4.73124 22.9698 5.01456 22.6689 5.3096Z" fill="url(#paint0_linear_158_177)"/>
<path d="M23.5654 4.45911C27.3812 11.0319 28.1225 23.7239 34.3748 25.182C34.8663 25.092 35.3584 24.9551 35.8515 24.7831C30.2389 22.033 28.6881 9.70853 24.3547 3.77531C24.0927 3.99366 23.829 4.22212 23.5654 4.45911Z" fill="url(#paint1_linear_158_177)"/>
<path d="M29.0631 0.550667C28.5412 0.550667 28.0103 0.601792 27.4777 0.702978C26.0867 0.965529 24.6722 1.56466 23.2471 2.4716C23.6358 2.85611 24.007 3.29547 24.3553 3.7753C25.8055 2.57226 27.2455 1.68342 28.6797 1.14873C29.2186 0.949019 29.7549 0.79937 30.2928 0.700315C29.9046 0.602324 29.4956 0.550667 29.0631 0.550667Z" fill="#14559A"/>
<path d="M40.2332 22.2487C40.8073 21.7923 41.3824 21.2874 41.9586 20.7362C39.5685 13.577 38.7127 0.56131 31.7863 0.56131C31.291 0.56131 30.7914 0.607641 30.293 0.699774C36.6022 2.26922 37.4106 15.9959 40.2332 22.2487Z" fill="url(#paint2_linear_158_177)"/>
<path d="M30.2932 0.700313C29.905 0.60179 29.4955 0.550133 29.0625 0.550133L31.786 0.56025C31.2913 0.56025 30.7917 0.60605 30.2932 0.700313Z" fill="#3092C4"/>
<path d="M40.1115 23.7691C39.841 23.5108 39.5837 23.2275 39.3308 22.9255C38.1655 23.7505 37.0045 24.3762 35.8516 24.7836C36.2622 24.9839 36.6919 25.133 37.1489 25.2251C37.5025 25.2976 37.8694 25.3348 38.2539 25.3348C39.5486 25.3348 40.5722 25.1815 41.4424 24.7639C40.9631 24.504 40.5232 24.1685 40.1115 23.7691Z" fill="#1969BC"/>
<path d="M28.6797 1.1498C34.3307 4.10549 34.8222 17.4908 39.3314 22.9255C39.6339 22.7125 39.9332 22.4867 40.2319 22.2487C37.4094 15.9959 36.6025 2.26763 30.2944 0.699783C29.756 0.800437 29.2186 0.949554 28.6797 1.1498Z" fill="url(#paint3_linear_158_177)"/>
<path d="M24.3545 3.7753C28.6879 9.70853 30.2387 22.0335 35.8513 24.7836C37.0049 24.3762 38.1658 23.751 39.3305 22.9255C34.8214 17.4908 34.3298 4.10602 28.6789 1.1498C27.2447 1.68342 25.8046 2.57226 24.3545 3.7753Z" fill="url(#paint4_linear_158_177)"/>
<path d="M19.8977 5.13652C19.2187 6.67189 18.5248 8.69081 17.6865 11.3254C19.354 8.9752 21.0166 6.95095 22.6697 5.31014C22.4417 4.61036 22.1973 3.96436 21.9337 3.38973C21.2579 3.90631 20.5762 4.48893 19.8977 5.13652Z" fill="url(#paint5_linear_158_177)"/>
<path d="M22.5354 2.94611C22.3362 3.08883 22.1354 3.23475 21.9336 3.38919C22.1972 3.96436 22.4411 4.60982 22.6685 5.31013C22.9689 5.01616 23.2671 4.73177 23.5654 4.45964C23.2453 3.9095 22.905 3.40198 22.5354 2.94611Z" fill="#2B74B1"/>
<path d="M23.2472 2.47107C23.0102 2.62125 22.7743 2.77995 22.5352 2.94558C22.9053 3.40091 23.2451 3.90951 23.5662 4.46017C23.8298 4.22159 24.0929 3.99205 24.3554 3.77477C24.0071 3.29547 23.6365 2.85558 23.2472 2.47107Z" fill="#125A9E"/>
<path d="M61.7923 0.00266336C58.5965 12.3282 51.9208 22.2284 46.3247 24.724H46.3135L46.0116 24.8534L45.9748 24.8678L45.8891 24.9008L45.8508 24.9168L45.7107 24.9663L45.6532 24.9865L45.5834 25.0094L45.5163 25.0329L45.4567 25.0531L45.3374 25.0893L45.2862 25.1026L45.2058 25.1245L45.151 25.1394L45.0631 25.1623L44.9561 25.1857C45.209 25.2789 45.4726 25.3263 45.7565 25.3263C51.0634 25.3263 56.4146 15.8159 65.2683 0H61.7918L61.7923 0.00266336Z" fill="url(#paint6_linear_158_177)"/>
<path d="M16.5333 1.05127L16.5434 1.04275L16.5556 1.03476H16.5625L16.6483 1.00175L16.6653 0.993224L16.6877 0.984171L16.7798 0.951153H16.7846L16.9886 0.87979L17.0189 0.871802L17.1063 0.845705L17.1462 0.832925L17.2341 0.806829L17.2676 0.797777L17.5595 0.722153L17.5994 0.7131L17.6846 0.69659L17.7262 0.683809L17.8119 0.667831H17.8322L18.0095 0.634812H18.0447L18.1267 0.620435L18.173 0.612445L18.2513 0.600729L18.2944 0.592209L18.4851 0.575166C18.3013 0.558124 18.1128 0.54641 17.92 0.54641C11.9431 0.54641 3.70873 11.6353 0 25.9963H0.715225C1.9023 23.8794 2.96848 21.8764 3.94359 19.9965C6.54194 9.82463 11.8329 2.88753 16.5333 1.04968" fill="url(#paint7_linear_158_177)"/>
<path d="M19.8975 5.13652C20.5765 4.48893 21.2576 3.90631 21.9334 3.3892C21.7795 3.05155 21.6198 2.73841 21.4483 2.45136C20.9019 3.11493 20.4023 3.99045 19.8975 5.13652Z" fill="#0D82CA"/>
<path d="M20.3881 1.13488C20.7785 1.46187 21.1284 1.91241 21.4479 2.45189C21.5486 2.32834 21.6508 2.21384 21.7568 2.10626C21.3126 1.69193 20.8333 1.35216 20.3125 1.096L20.3764 1.12636L20.3881 1.13488Z" fill="#0D82CA"/>
<path d="M3.94434 19.997C9.394 9.49551 11.9758 2.84919 16.534 1.05021C11.8342 2.88966 6.54215 9.82623 3.94434 19.997Z" fill="url(#paint8_linear_158_177)"/>
<path d="M21.7562 2.10626C21.6502 2.2149 21.549 2.32834 21.4473 2.45189C21.6187 2.73841 21.778 3.05049 21.9335 3.38919C22.1348 3.23475 22.3361 3.08936 22.5347 2.94611C22.2887 2.64202 22.0283 2.35976 21.7562 2.10626Z" fill="#127BCA"/>
<path d="M6.41814 25.9494L6.31909 25.9611H6.30045L6.2163 25.9696H6.20246L6.00221 25.983H5.98145C11.4966 25.8285 14.0183 23.0672 15.2693 19.0613C16.2199 16.0252 17.0011 13.4668 17.6855 11.3206C15.3752 14.5724 13.0543 18.4483 10.7212 22.7913C9.59645 24.8843 7.88534 25.7587 6.41814 25.9451" fill="url(#paint9_linear_158_177)"/>
<path d="M6.4185 25.9473C7.8857 25.7603 9.59681 24.887 10.7216 22.7929C13.0547 18.4521 15.3767 14.575 17.6848 11.3227C18.5246 8.68708 19.2175 6.66975 19.897 5.13386C15.2962 9.51308 10.6779 16.7947 6.41797 25.9446" fill="url(#paint10_linear_158_177)"/>
<path d="M3.94374 19.9975C2.96863 21.8775 1.90245 23.8804 0.714844 25.9973H2.79395C3.06928 23.8948 3.45911 21.8908 3.94321 19.9986" fill="#05A1E6"/>
<path d="M18.294 0.596468L18.2498 0.604988L18.1721 0.616172L18.1263 0.624162L18.0443 0.638539L18.0091 0.647062L17.8318 0.677949H17.8115L17.7253 0.694992L17.6821 0.706708L17.5985 0.723216L17.5591 0.732803L17.2667 0.808425L17.2332 0.818012L17.1448 0.844107L17.1048 0.855291L17.018 0.881386L16.9861 0.889906L16.7832 0.961271L16.691 0.993223L16.6527 1.0092L16.567 1.04115L16.5382 1.055C11.9806 2.85345 9.39873 9.49977 3.94906 20.0013C3.46497 21.8929 3.07301 23.8975 2.7998 26H3.09111L5.09087 25.9915H6.00846L6.20817 25.9782H6.22096L6.3051 25.9696H6.3248L6.42386 25.9579C10.6843 16.8075 15.3027 9.5264 19.9029 5.14717C20.4088 4.00111 20.9078 3.12558 21.4532 2.46308C21.1336 1.9236 20.7843 1.47199 20.3944 1.14447L20.3833 1.13595L20.3183 1.10453L20.2538 1.07204L20.1915 1.04169L20.1175 1.0108L20.06 0.985767L19.9391 0.935175L19.8874 0.916002L19.7974 0.879789L19.749 0.863811L19.6238 0.820675H19.6137L19.4689 0.779669L19.4364 0.76955L19.3144 0.735466L19.2862 0.727478C19.1877 0.70085 19.086 0.680613 18.9832 0.660909L18.9517 0.652386L18.8202 0.631083L18.7941 0.623095L18.6386 0.602327H18.6114L18.4911 0.589012L18.3004 0.606587" fill="url(#paint11_linear_158_177)"/>
<path d="M49.3101 6.82633C48.2609 10.1852 47.4126 12.9561 46.6729 15.2359C49.5503 11.2764 52.3845 6.2959 55.083 0.548538C51.934 1.5375 50.2554 3.80087 49.3101 6.82633Z" fill="url(#paint12_linear_158_177)"/>
<path d="M46.7635 24.5147C46.617 24.5893 46.4695 24.6601 46.3252 24.7245C51.9213 22.2284 58.5975 12.3282 61.7928 0.00266266H61.1452C53.8023 13.1201 51.4409 21.9014 46.7635 24.5147Z" fill="url(#paint13_linear_158_177)"/>
<path d="M43.1095 23.4128C44.3274 21.9265 45.3185 19.4 46.6728 15.2359C45.1108 17.3816 43.5387 19.2259 41.965 20.7298L41.957 20.7431C42.3005 21.7715 42.6771 22.6795 43.1063 23.4123" fill="#079AE1"/>
<path d="M43.1088 23.4128C42.6944 23.9188 42.2551 24.3038 41.7672 24.5893C41.6607 24.6516 41.5521 24.7101 41.4424 24.7634C41.9579 25.0414 42.5197 25.2278 43.1498 25.3018L43.4288 25.3263H43.4453L43.5795 25.3348H44.0349L44.0865 25.3263L44.1872 25.3178H44.2362L44.3454 25.3061H44.3544L44.388 25.2981L44.5046 25.28H44.5387L44.6697 25.2581H44.691L44.9525 25.2028C44.2298 24.9386 43.6253 24.315 43.105 23.4272" fill="#1969BC"/>
<path d="M32.792 25.3348C33.315 25.3348 33.8443 25.2837 34.3753 25.1815C34.8674 25.0925 35.3595 24.9557 35.8521 24.7836C36.2627 24.9839 36.693 25.133 37.1488 25.2262C37.5025 25.2981 37.8699 25.3354 38.255 25.3354L32.792 25.3348Z" fill="#1E5CB3"/>
<path d="M38.2549 25.3348C39.5485 25.3348 40.5731 25.1815 41.4428 24.7634C41.9583 25.0419 42.5201 25.2278 43.1502 25.3023L43.4292 25.3263H43.4457L43.5799 25.3348H43.7408H38.2549Z" fill="#1E5CB3"/>
<path d="M43.7402 25.3348H44.039L44.0907 25.3263L44.1924 25.3178H44.2414L44.35 25.3061H44.3591L44.3921 25.2976L44.5087 25.28L44.5444 25.272L44.6759 25.2507H44.6967L44.9582 25.1953C45.2112 25.2885 45.4748 25.3359 45.7586 25.3359L43.7413 25.3444L43.7402 25.3348Z" fill="#1D60B5"/>
<path d="M41.9601 20.7437V20.7351C41.3839 21.2863 40.8087 21.7912 40.2346 22.2476C39.9348 22.4856 39.6355 22.7115 39.333 22.9245C39.5865 23.227 39.8437 23.5103 40.1148 23.7686C40.5259 24.1675 40.9653 24.5035 41.4451 24.7629C41.5543 24.7091 41.6635 24.6505 41.7695 24.5887C42.2583 24.3033 42.6966 23.9177 43.1115 23.4123C42.6823 22.6795 42.3057 21.771 41.9628 20.7431" fill="#175FAB"/>
<path d="M59.0944 0.00266266H55.8347L55.3181 0.0276913L55.0779 0.542142C52.3789 6.29004 49.5457 11.2705 46.6683 15.2301C45.3156 19.3936 44.3229 21.9206 43.1055 23.4064C43.6258 24.2947 44.2313 24.9189 44.9513 25.1836L45.0078 25.1713H45.0195L45.0594 25.1628L45.15 25.1404L45.2037 25.125L45.2842 25.1042L45.3342 25.0899L45.4546 25.0536L45.5142 25.0334L45.5813 25.0089L45.6506 24.9871L45.707 24.9658L45.8476 24.9162L45.8865 24.9019L45.9728 24.8683L46.009 24.855L46.3115 24.7256H46.3221C46.4664 24.6622 46.6134 24.5903 46.7593 24.5158C51.4379 21.902 53.7998 13.1212 61.1427 0.00425945H59.0918L59.0944 0.00266266Z" fill="url(#paint14_linear_158_177)"/>
<path d="M18.4863 0.579416L18.5199 0.587938L18.6051 0.596991H18.6338L18.7894 0.617229L18.8154 0.625749L18.9465 0.647585L18.9795 0.655573L19.2814 0.722675L19.3091 0.731197L19.4306 0.76528L19.4641 0.775397L19.6084 0.816406L19.6196 0.824926L19.7458 0.868064L19.7938 0.883508L19.8843 0.920255L19.9354 0.938362L20.0558 0.988421L20.1144 1.01345L20.1868 1.04487L20.2507 1.07523L20.3141 1.10825C20.8354 1.36387 21.3147 1.70524 21.7589 2.11904C21.9229 1.94703 22.0933 1.79258 22.2712 1.65359C21.3004 0.964989 20.1996 0.572495 18.9315 0.572495C18.7846 0.572495 18.6376 0.581015 18.4885 0.592198" fill="#7DCBEC"/>
<path d="M21.7568 2.10626C22.029 2.35923 22.2894 2.64148 22.5354 2.94611C22.774 2.78048 23.0105 2.62071 23.2475 2.4716C22.937 2.16112 22.6095 1.88152 22.2681 1.64081C22.0907 1.77927 21.9209 1.93478 21.7568 2.10626Z" fill="#5EC5ED"/>
<path d="M18.3451 0.613935L18.7884 0.595147C20.0573 0.595147 21.157 0.987586 22.1275 1.6758C23.1518 0.86661 24.3909 0.5844 26.1115 0.5844H17.7803L18.3451 0.613935Z" fill="url(#paint15_linear_158_177)"/>
<path d="M26.1119 0.584408C24.3913 0.584408 23.1549 0.866618 22.1279 1.67581C22.4667 1.91508 22.7947 2.19472 23.1065 2.50657C24.534 1.60059 25.9454 0.99835 27.3379 0.73758C27.8702 0.638111 28.3998 0.587033 28.9213 0.587033L26.1119 0.584408Z" fill="url(#paint16_linear_158_177)"/>
<path d="M46.672 15.2381C47.4128 12.9566 48.2591 10.1868 49.3103 6.82686C50.2567 3.79981 51.9332 1.53643 55.0806 0.549073L55.3234 0.0346222C50.1917 0.341908 47.7931 2.95251 46.5868 6.81834C44.4758 13.5674 43.1971 17.9424 41.9658 20.7303C43.5379 19.2269 45.11 17.3816 46.672 15.2381Z" fill="url(#paint17_linear_158_177)"/>
<defs>
<linearGradient id="paint0_linear_158_177" x1="28.6384" y1="0.380665" x2="28.6384" y2="31.56" gradientUnits="userSpaceOnUse">
<stop stop-color="#0994DC"/>
<stop offset="0.35" stop-color="#66CEF5"/>
<stop offset="0.846" stop-color="#127BCA"/>
<stop offset="1" stop-color="#127BCA"/>
</linearGradient>
<linearGradient id="paint1_linear_158_177" x1="29.8125" y1="-0.369347" x2="29.8125" y2="31.5228" gradientUnits="userSpaceOnUse">
<stop stop-color="#0E76BC"/>
<stop offset="0.36" stop-color="#36AEE8"/>
<stop offset="0.846" stop-color="#00ADEF"/>
<stop offset="1" stop-color="#00ADEF"/>
</linearGradient>
<linearGradient id="paint2_linear_158_177" x1="36.1238" y1="24.5773" x2="36.1238" y2="-0.798804" gradientUnits="userSpaceOnUse">
<stop stop-color="#1C63B7"/>
<stop offset="0.5" stop-color="#33BDF2"/>
<stop offset="1" stop-color="#33BDF2" stop-opacity="0.42"/>
</linearGradient>
<linearGradient id="paint3_linear_158_177" x1="34.4092" y1="-3.70122" x2="34.4092" y2="29.4959" gradientUnits="userSpaceOnUse">
<stop stop-color="#166AB8"/>
<stop offset="0.4" stop-color="#36AEE8"/>
<stop offset="0.846" stop-color="#0798DD"/>
<stop offset="1" stop-color="#0798DD"/>
</linearGradient>
<linearGradient id="paint4_linear_158_177" x1="31.9625" y1="-3.44202" x2="31.9625" y2="31.8588" gradientUnits="userSpaceOnUse">
<stop stop-color="#124379"/>
<stop offset="0.39" stop-color="#1487CB"/>
<stop offset="0.78" stop-color="#165197"/>
<stop offset="1" stop-color="#165197"/>
</linearGradient>
<linearGradient id="paint5_linear_158_177" x1="17.4188" y1="6.98026" x2="22.4014" y2="6.98026" gradientUnits="userSpaceOnUse">
<stop stop-color="#33BDF2" stop-opacity="0.698"/>
<stop offset="1" stop-color="#1DACD8"/>
</linearGradient>
<linearGradient id="paint6_linear_158_177" x1="55.1505" y1="23.9176" x2="55.1505" y2="-0.802124" gradientUnits="userSpaceOnUse">
<stop stop-color="#136AB4"/>
<stop offset="0.6" stop-color="#59CAF5" stop-opacity="0.549"/>
<stop offset="1" stop-color="#59CAF5" stop-opacity="0.235"/>
</linearGradient>
<linearGradient id="paint7_linear_158_177" x1="-0.264799" y1="12.8919" x2="18.2185" y2="12.8919" gradientUnits="userSpaceOnUse">
<stop stop-color="#05A1E6" stop-opacity="0.247"/>
<stop offset="1" stop-color="#05A1E6"/>
</linearGradient>
<linearGradient id="paint8_linear_158_177" x1="10.3379" y1="24.5553" x2="10.3379" y2="-0.755728" gradientUnits="userSpaceOnUse">
<stop stop-color="#318ED5"/>
<stop offset="1" stop-color="#38A7E4"/>
</linearGradient>
<linearGradient id="paint9_linear_158_177" x1="11.7019" y1="24.69" x2="11.7019" y2="0.0230938" gradientUnits="userSpaceOnUse">
<stop stop-color="#05A1E6"/>
<stop offset="1" stop-color="#05A1E6" stop-opacity="0.549"/>
</linearGradient>
<linearGradient id="paint10_linear_158_177" x1="13.2488" y1="25.9797" x2="13.2488" y2="5.13588" gradientUnits="userSpaceOnUse">
<stop stop-color="#1959A6"/>
<stop offset="0.5" stop-color="#05A1E6"/>
<stop offset="0.918" stop-color="#7EC5EA"/>
<stop offset="1" stop-color="#7EC5EA"/>
</linearGradient>
<linearGradient id="paint11_linear_158_177" x1="13.9156" y1="24.5947" x2="9.94073" y2="2.0518" gradientUnits="userSpaceOnUse">
<stop stop-color="#165096"/>
<stop offset="1" stop-color="#0D82CA"/>
</linearGradient>
<linearGradient id="paint12_linear_158_177" x1="50.7491" y1="11.8123" x2="50.7491" y2="0.0314904" gradientUnits="userSpaceOnUse">
<stop stop-color="#05A1E6"/>
<stop offset="0.874" stop-color="#0495D6"/>
<stop offset="1" stop-color="#0495D6"/>
</linearGradient>
<linearGradient id="paint13_linear_158_177" x1="56.5148" y1="-0.912032" x2="51.7247" y2="26.2538" gradientUnits="userSpaceOnUse">
<stop stop-color="#38A7E4" stop-opacity="0.329"/>
<stop offset="0.962" stop-color="#0E88D3"/>
<stop offset="1" stop-color="#0E88D3"/>
</linearGradient>
<linearGradient id="paint14_linear_158_177" x1="51.9695" y1="-0.041775" x2="51.9695" y2="25.6591" gradientUnits="userSpaceOnUse">
<stop stop-color="#168CD4"/>
<stop offset="0.5" stop-color="#1C87CC"/>
<stop offset="1" stop-color="#154B8D"/>
</linearGradient>
<linearGradient id="paint15_linear_158_177" x1="17.9819" y1="-2.27155" x2="47.8655" y2="10.1238" gradientUnits="userSpaceOnUse">
<stop stop-color="#97D6EE"/>
<stop offset="0.703" stop-color="#55C1EA"/>
<stop offset="1" stop-color="#55C1EA"/>
</linearGradient>
<linearGradient id="paint16_linear_158_177" x1="23.1931" y1="4.50323" x2="46.7958" y2="-6.19615" gradientUnits="userSpaceOnUse">
<stop stop-color="#7ACCEC"/>
<stop offset="1" stop-color="#3FB7ED"/>
</linearGradient>
<linearGradient id="paint17_linear_158_177" x1="48.4628" y1="1.35567" x2="48.4628" y2="26.4937" gradientUnits="userSpaceOnUse">
<stop stop-color="#1DA7E7"/>
<stop offset="1" stop-color="#37ABE7" stop-opacity="0"/>
</linearGradient>
</defs>
</svg>
